/* XPM */
static char *result[] = {
/* columns rows colors chars-per-pixel */
"80 80 144 2 ",
"   c #7A3F7A",
".  c #1D7D73",
"X  c #366D6D",
"o  c #3C696A",
"O  c #26716C",
"+  c #2B746E",
"@  c #356D71",
"#  c #277770",
"$  c #287670",
"%  c #237971",
"&  c #6B4B5D",
"*  c #74455C",
"=  c #794259",
"-  c #70485C",
";  c #62515F",
":  c #4C5F65",
">  c #4E5C6D",
",  c #5D5362",
"<  c #525B64",
"1  c #515B6A",
"2  c #595573",
"3  c #6B4B63",
"4  c #635060",
"5  c #684B7A",
"6  c #446467",
"7  c #4A6165",
"8  c #406768",
"9  c #456271",
"0  c #BC6B3D",
"q  c #CB7C26",
"w  c #C4722C",
"e  c #962F4F",
"r  c #992E4E",
"t  c #97314F",
"y  c #9C394B",
"u  c #942E53",
"i  c #9A2D51",
"p  c #902F5A",
"a  c #8D3555",
"s  c #823C56",
"d  c #883855",
"f  c #8E345D",
"g  c #833B59",
"h  c #943154",
"j  c #9B3B53",
"k  c #933159",
"l  c #9A3958",
"z  c #8B2F62",
"x  c #8C3463",
"c  c #89346C",
"v  c #913463",
"b  c #903866",
"n  c #923C69",
"m  c #843677",
"M  c #893672",
"N  c #853872",
"B  c #853679",
"V  c #883578",
"C  c #84387A",
"Z  c #9E4357",
"A  c #A64543",
"S  c #B45F43",
"D  c #A24754",
"F  c #A95356",
"G  c #AE5B56",
"H  c #A15D5F",
"J  c #AD5A58",
"K  c #B26358",
"L  c #BB7152",
"P  c #8E4477",
"I  c #A04A6A",
"U  c #AA5872",
"Y  c #AB6162",
"T  c #C17E5E",
"R  c #0E8677",
"E  c #018E7B",
"W  c #0A8978",
"Q  c #128476",
"!  c #00917C",
"~  c #FBC204",
"^  c #FFCA03",
"/  c #FED11E",
"(  c #F6C524",
")  c #FCD636",
"_  c #C88955",
"`  c #CD935F",
"'  c #D7A253",
"]  c #D09F65",
"[  c #D7A764",
"{  c #DEB465",
"}  c #E1B865",
"|  c #F3CE4A",
" . c #FBDD4C",
".. c #FEE14C",
"X. c #ECCC66",
"o. c #F4DB6A",
"O. c #F8E065",
"+. c #7F3A85",
"@. c #7D3C8D",
"#. c #763C96",
"$. c #793C95",
"%. c #753E9D",
"&. c #793C99",
"*. c #743FA0",
"=. c #6D4688",
"-. c #6B459C",
";. c #734192",
":. c #73409E",
">. c #6F42AC",
",. c #7142A9",
"<. c #6B43B4",
"1. c #6645BD",
"2. c #6944BA",
"3. c #5D49D4",
"4. c #5A4BDC",
"5. c #6646C1",
"6. c #6247CA",
"7. c #6148CB",
"8. c #584CE0",
"9. c #813883",
"0. c #8E4986",
"q. c #8E5599",
"w. c #B46B81",
"e. c #0D9784",
"r. c #1F9D8B",
"t. c #44AD9E",
"y. c #55B7A9",
"u. c #71C3B7",
"i. c #849B9C",
"p. c #ACACB1",
"a. c #C58B9C",
"s. c #CB97A6",
"d. c #D8B5C3",
"f. c #DFC0C9",
"g. c #E2C4CC",
"h. c #C8E8E4",
"j. c #DBEFED",
"k. c #DCF2EF",
"l. c #F2E6EA",
"z. c #F4E9EC",
"x. c #E1F2EF",
"c. c #F7EFF1",
"v. c #E3F3F1",
"b. c #FFFFFF",
/* pixels */
"4.4.4.4.4.4.4.4.4.4.4.4.4.4.4.4.4.4.4.4.4.4.4.4.4.4.4.4.4.4.4.4.4.4.4.4.4.4.4.4.4.4.4.4.4.4.4.4.4.4.4.4.4.4.4.4.4.4.4.4.4.4.4.4.4.4.4.4.4.4.4.4.4.4.4.4.4.4.4.4.",
"4.4.4.4.4.4.4.4.4.4.4.4.4.4.4.4.4.4.4.4.4.4.4.4.4.4.4.4.4.4.4.4.4.4.4.4.4.4.4.4.4.4.4.4.4.4.4.4.4.4.4.4.4.4.4.4.4.4.4.4.4.4.4.4.4.4.4.4.4.4.4.4.4.4.4.4.4.4.4.4.",
"4.4.4.4.4.4.4.4.4.4.4.4.4.4.4.4.4.4.4.4.4.4.4.4.4.4.4.4.4.4.4.4.4.4.4.4.4.4.4.4.4.4.4.4.4.4.4.4.4.4.4.4.4.4.4.4.4.4.4.4.4.4.4.4.4.4.4.4.4.4.4.4.4.4.4.4.4.4.4.4.",
"4.4.4.4.4.4.4.4.4.4.4.4.4.4.4.4.4.4.4.4.4.4.4.4.4.8.4.4.4.4.4.4.4.4.4.4.4.4.4.4.8.4.4.4.4.4.4.4.4.4.4.4.4.4.4.4.4.4.4.4.4.4.4.4.4.4.4.4.4.4.4.4.4.4.4.4.4.4.4.4.",
"4.4.4.4.4.4.4.4.4.4.4.4.4.4.4.4.4.4.4.4.4.4.4.3.7.7.7.7.4.4.4.4.4.4.4.4.4.3.7.7.6.7.3.4.4.4.4.4.4.4.4.4.4.4.4.4.4.4.4.4.4.4.4.4.4.4.4.4.4.4.4.3.4.4.4.4.4.4.4.4.",
"4.4.4.4.4.4.4.4.4.4.4.4.4.4.4.4.4.4.4.4.4.4.4.2.x x f ,.4.4.4.4.4.4.4.4.4.*.x x x x %.4.4.4.4.4.4.4.4.4.4.4.4.4.4.4.4.4.4.4.4.4.4.4.4.4.4.4.4.4.4.4.4.4.4.4.4.4.",
"4.4.4.4.4.4.4.4.4.4.4.4.4.4.4.4.4.4.4.4.4.4.8.<.d X $ 2 &.3.8.4.4.4.4.3.$.2 + + + = #.4.4.4.4.4.4.4.4.4.4.4.4.4.4.4.4.4.4.4.4.4.4.4.4.4.4.4.4.4.4.4.4.4.4.4.4.4.",
"4.4.4.4.4.4.4.4.4.4.4.4.4.4.4.4.4.4.4.4.4.4.4.<.g R ! 7 v *.3.4.4.4.4.4.V 7 ! ! E & $.4.4.4.4.4.4.4.4.4.4.4.4.4.4.4.4.4.4.4.4.4.4.4.4.4.4.4.4.4.4.4.4.4.4.4.4.4.",
"4.4.4.4.4.4.4.4.4.4.4.4.4.4.4.4.4.4.4.4.4.4.8.<.d X W X = v 7.4.4.4.4.4.C : ! ! E & $.4.4.4.4.4.4.4.4.4.4.4.4.4.4.4.4.4.4.4.4.4.4.4.4.4.4.4.4.4.4.4.4.4.4.4.4.4.",
"4.4.4.4.4.4.4.4.4.4.4.4.4.4.4.4.4.4.4.4.4.4.4.1.x a $ ! + x 7.4.4.4.4.3.V : E E E & &.4.4.4.4.4.4.4.4.4.4.4.4.4.4.4.4.4.4.4.4.4.4.4.4.4.4.4.4.4.4.4.4.4.4.4.4.4.",
"4.4.4.4.4.4.4.4.4.4.4.4.4.4.4.4.4.4.4.4.4.4.4.3.1.x + ! + x 6.4.4.4.4.4.V 7 ! E E & $.4.4.4.4.4.4.3.4.4.4.4.4.4.4.4.4.4.4.4.4.4.4.4.4.4.4.4.4.4.4.4.4.4.4.4.4.4.",
"4.4.4.4.4.4.4.4.4.4.4.4.4.4.4.4.4.4.4.4.4.4.4.8.7.x + ! W @   5.4.4.4.4.V : ! ! E & $.8.4.4.4.>.V +.3.4.4.4.4.4.4.4.4.4.4.4.4.4.4.4.4.4.4.4.4.4.4.4.4.4.4.4.4.4.",
"4.4.4.4.4.4.4.4.4.4.4.4.4.4.4.4.4.4.4.4.8.4.4.8.3.:.2 % ! R s <.4.4.4.4.V : ! E E - $.4.4.4.>.N e k $.5.4.4.4.4.4.4.4.4.4.4.4.4.4.4.4.4.4.4.4.4.4.4.4.4.4.4.4.4.",
"4.4.4.4.4.4.4.4.4.4.4.4.4.4.4.4.4.4.4.3.2.<.6.8.4.4.V ; . R , -.7.4.4.3.m : ! E E & &.4.4.4.V s & & h <.8.4.4.4.4.4.4.4.4.4.4.4.4.4.4.4.4.4.4.4.4.4.4.4.4.4.4.4.",
"4.4.4.4.4.4.4.4.4.4.4.4.4.4.4.4.4.4.4.7.v i ;.7.7.3.9.k & ! E & &.4.4.4.V : ! E E & $.4.4.4.V : E % g <.4.4.4.4.4.4.4.4.4.3.4.4.4.4.4.4.4.4.4.4.4.4.4.4.4.4.4.4.",
"4.4.4.4.4.4.4.4.4.4.4.4.4.4.4.4.4.4.4.7.v h k x M 7.7.;.& W E & $.4.4.4.C : ! E E - $.4.4.3.V 7 % s k <.4.4.4.4.4.4.4.4.4.4.4.4.4.4.4.4.4.4.4.4.4.4.4.4.4.4.4.4.",
"4.4.4.4.4.4.4.4.4.4.4.4.4.4.4.4.4.4.4.7.x 6 # 7 h V 5.7.,., R . 2 $.4.3.B 7 ! ! ! & &.4.3.9.9 Q $ k >.3.4.4.4.4.4.,.$.4.4.4.4.4.4.4.4.4.4.4.4.4.4.4.4.4.4.4.4.4.",
"4.4.4.4.4.4.4.4.4.4.4.4.4.4.4.4.4.4.4.7.x ; % Q 7 : =.&.9.s Q ! 7 V 4.4.,.5 X E E & $.8.7.v $ ! + x 7.4.4.4.4.4.4.#.x %.3.4.4.4.4.4.4.4.4.4.4.4.4.4.4.4.4.4.4.4.",
"4.4.4.4.4.4.4.4.4.4.4.4.4.4.4.4.4.4.4.7.+.k ; . E E : & * d X W X 5 2.4.8.$.& E W & $.4.7.x + ! + x 7.4.4.4.4.4.4.&.h v 6.4.4.4.4.4.4.4.4.4.4.4.4.4.4.4.4.4.4.4.",
"4.4.4.4.4.4.4.4.4.4.4.4.4.4.4.4.4.4.4.4.3.+.h & Q E E E + s a X W X x 7.8.$.& W ! & $.4.1.x $ E X V 7.8.4.4.4.4.4.;.r x 7.4.4.4.4.4.4.4.4.4.4.4.4.4.4.4.4.4.4.4.",
"4.4.4.4.4.4.4.4.4.4.4.4.4.4.4.4.4.4.4.4.4.3.$.h * Q E E E % s a o + x 6.4.&.& E E & $.2.x a $ 8   7.4.4.4.4.4.4.4.$.e x 7.4.4.4.4.4.4.4.4.4.4.4.4.4.4.4.4.4.4.4.",
"4.4.4.4.4.3.4.4.4.4.4.4.4.4.4.4.4.4.4.4.4.8.7.$.h - & X ! E + = 7 W o 5 5.&.& E E - &.<.d X W : V 4.4.4.4.4.4.4.8.$.e x 7.4.4.4.4.4.4.4.4.4.4.4.4.4.4.4.4.4.4.4.",
"4.4.4.4.4.4.4.4.4.4.4.4.4.4.4.4.4.4.4.4.4.4.4.7.@.k i 7 ! E E X $ ! Q g 2.&.& W E & &.2.s Q ! 7 V 3.4.4.4.4.4.4.>.V h k $.7.8.4.4.4.4.4.4.4.4.4.4.4.4.4.4.4.4.4.",
"4.4.4.4.4.4.4.4.4.4.4.4.4.4.4.4.4.4.4.4.4.4.4.4.3.+.k ; . ! E ! ! ! W 4 -.9.& E E & 9.&.s Q ! 7 m 4.4.4.4.4.4.4.C A S G t &.<.5.4.4.4.4.4.4.4.4.4.4.4.4.4.4.4.4.",
"4.4.4.4.4.4.4.4.4.4.4.4.4.4.4.4.4.4.4.4.4.4.4.4.4.3.+.h & Q E ! E ! E E 3 i 3 E E & i k * Q W 1 9.4.4.4.4.4.3.6.m q / X.J l h m 7.4.4.4.4.4.4.4.4.4.4.4.4.4.4.4.",
"4.4.4.4.4.4.4.4.4.4.4.4.4.4.4.4.4.4.4.4.4.4.4.4.4.4.3.@.h * Q ! E E E E & i & E E & i - Q E ; #.3.4.4.4.4.4.7.N p q / O.X.J u k P 7.4.4.4.4.4.4.4.4.4.4.4.4.4.4.",
"4.4.4.4.4.4.4.4.4.4.4.4.4.4.4.4.4.4.4.4.4.4.4.4.4.4.4.#.t s Q E ! E ! E . 4 & E E & i & E W & $.4.4.4.4.8.5.V u e q ^ ( L j +.<.2.3.4.4.4.4.4.4.4.4.4.4.4.4.4.4.",
"4.4.4.4.4.4.4.4.4.4.4.4.4.4.4.4.4.4.4.4.4.4.4.4.4.4.4.1.9.h < Q ! E E E ! < & E E - i 3 E E & $.4.4.4.4.4.<.p @.#.H q w y +.1.4.4.4.4.4.4.4.4.4.4.4.4.4.4.4.4.4.",
"4.4.4.4.4.4.4.4.4.4.4.4.4.4.4.4.4.4.4.4.4.4.4.4.4.4.4.4.5.C h $ ! E E E ! X : E E : & : E E & $.4.4.4.4.8.5.+.3.8.>.c p h <.4.4.4.4.4.4.4.4.4.4.4.4.4.4.4.4.4.4.",
"4.4.4.4.4.4.4.4.4.4.4.4.4.4.4.4.4.4.4.4.4.4.4.4.4.4.4.4.4.7.M 8 E E ! ! E E E E E E E E E Q 3 *.8.4.4.4.4.4.4.4.4.4.<.h h <.8.4.4.4.4.4.4.4.4.4.4.4.4.4.4.4.4.4.",
"4.4.4.4.4.4.4.4.4.4.4.4.4.4.4.4.4.4.4.4.4.4.4.4.4.4.4.4.4.4.7.5 6 E E E E E E E ! E E E Q * >.3.4.4.4.4.4.4.4.4.4.4.<.h h <.4.4.4.3.4.4.4.4.4.4.4.4.4.4.4.4.4.4.",
"4.4.4.4.4.4.4.4.4.4.4.4.4.4.4.4.4.4.4.4.4.4.4.4.4.4.4.4.4.4.4.V s : E E ! ! E E E E ! ! Q g <.8.4.4.4.4.4.4.4.4.4.4.<.h h <.8.4.4.4.4.4.4.4.4.4.4.4.4.4.4.4.4.4.",
"4.4.4.4.4.4.4.4.4.4.4.4.4.4.4.4.4.4.4.4.4.4.4.4.4.4.4.4.4.4.4.,.M & E E E E ! E E E ! ! Q s <.4.4.4.4.4.4.4.4.4.4.4.<.h h <.4.4.4.4.4.4.4.4.4.4.4.4.4.4.4.4.4.4.",
"4.4.4.4.4.4.4.4.4.4.4.4.4.4.4.4.4.4.4.4.4.4.4.4.4.4.4.4.4.4.4.8.&.= $ E E E ! E ! E E ! Q g <.4.4.4.4.4.4.4.4.4.4.8.<.h h <.4.4.4.4.4.4.4.4.4.4.4.4.4.4.4.4.4.4.",
"4.4.4.4.4.4.4.4.4.4.4.4.4.4.4.4.4.4.4.4.4.4.4.4.4.4.4.4.4.4.4.4.*.v s Q ! ! E E ! E E ! Q g 2.8.4.4.4.4.4.4.4.4.4.4.2.c x 2.8.4.4.4.4.4.4.4.4.4.4.4.4.4.4.4.4.4.",
"4.4.4.4.4.4.4.4.4.4.4.4.4.4.4.4.4.4.4.4.4.4.4.4.4.4.4.4.4.4.4.4.3.*.g Q ! E E ! E E ! E Q g <.4.4.4.4.4.4.4.4.4.4.4.3.7.7.3.4.4.4.4.4.4.4.4.4.4.4.4.4.4.4.4.4.4.",
"4.4.4.4.4.4.4.4.4.4.4.4.4.4.4.4.4.4.4.4.4.4.4.4.4.4.4.4.4.4.4.4.8.<.g R E E ! E E E ! E Q g <.8.4.4.4.4.4.4.4.4.4.4.4.4.8.4.4.4.4.4.4.4.4.4.4.4.4.4.4.4.4.4.4.4.",
"4.4.4.4.4.4.4.4.4.4.4.4.4.4.4.4.4.4.4.4.4.4.4.4.4.4.4.4.4.4.4.4.4.<.a < Q E ! E ! E ! Q > ;.6.4.4.4.4.4.4.4.4.4.4.4.4.4.4.4.4.4.4.4.4.4.4.4.4.4.4.4.4.4.4.4.4.4.",
"4.4.4.4.4.4.4.4.3.4.4.4.4.4.4.4.4.4.4.4.4.4.4.7.1.3.4.4.4.4.4.4.8.5.V h $ ! E E E E E + x 7.8.4.4.4.4.4.4.4.4.4.4.4.4.4.4.4.4.4.4.4.4.4.4.4.4.4.4.4.4.4.4.4.4.4.",
"4.4.4.4.4.4.4.4.4.4.4.4.4.4.4.4.4.4.4.4.4.4.8.<.c 5.3.4.4.4.4.4.4.4.6.x + E e.r.r.r.e.+ x 7.4.4.4.4.4.4.4.4.4.4.4.4.4.4.4.4.4.4.4.4.4.4.4.4.4.4.4.4.4.4.4.4.4.4.",
"4.4.4.4.4.4.4.4.4.4.4.4.4.4.4.4.4.4.4.4.4.4.4.<.k v 2.4.4.4.4.4.4.4.7.x + ! t.j.x.v.u.+ x 7.8.4.4.4.4.4.4.4.4.4.4.4.4.4.4.4.4.4.4.4.4.4.4.4.4.4.4.4.4.4.4.4.4.4.",
"4.4.4.4.4.4.4.4.4.4.4.4.4.4.4.4.4.4.4.4.4.4.4.<.h h <.4.4.4.4.4.4.4.7.x O y.h.b.b.b.k.p.x 7.4.4.4.4.4.4.4.4.4.4.4.4.4.4.4.4.4.4.4.4.4.4.4.4.4.4.4.4.4.4.4.4.4.4.",
"4.4.4.4.4.4.4.4.4.4.4.4.4.4.4.4.4.4.4.4.4.4.8.<.h k <.8.4.4.4.4.4.4.7.x i.h.b.b.b.b.b.g.n 7.4.4.4.4.4.4.4.4.4.4.4.4.4.4.4.4.4.4.4.4.4.4.4.4.4.4.4.4.4.4.4.4.4.4.",
"4.4.4.4.4.4.4.4.4.4.4.4.4.4.4.4.4.4.4.4.4.4.8.<.u h <.8.4.4.4.4.4.8.7.b g.b.b.b.b.b.b.g.v 7.8.4.4.4.4.4.4.4.4.4.4.4.4.4.4.4.4.4.4.4.4.4.4.4.4.4.4.4.4.4.4.4.4.4.",
"4.4.4.4.4.4.4.4.4.4.4.4.4.4.4.4.4.4.4.4.4.4.3.,.Z h ,.3.4.4.4.4.4.4.7.v g.b.b.b.b.b.b.g.x 7.4.4.4.4.4.4.4.4.4.4.4.4.4.4.4.4.4.4.4.4.4.4.4.4.4.4.4.4.4.4.4.4.4.4.",
"4.4.4.4.4.4.4.4.4.4.4.4.4.4.4.4.4.4.4.4.4.4.%.Y } D k :.4.4.4.4.4.4.7.b f.b.b.b.b.b.b.g.b 7.4.4.4.4.4.4.4.4.4.4.4.4.4.4.4.4.4.4.4.4.4.4.4.4.4.4.4.4.4.4.4.4.4.4.",
"4.4.4.4.4.4.4.4.4.4.4.4.4.4.4.4.4.8.4.8.4.&.x K o.{ F z &.4.8.8.4.4.7.x U d.b.b.b.b.b.g.b 7.4.4.4.4.4.4.4.4.4.4.4.4.4.4.4.4.4.4.4.3.4.4.4.4.4.4.4.4.4.4.4.4.4.4.",
"4.4.4.4.4.4.4.4.4.4.4.4.4.4.4.4.>.$.#.#.$.x J ' ) ) ' J x $.;.$.2.8.3.%.z s.b.b.b.b.b.g.b 6.4.4.4.4.4.4.4.4.4.4.4.4.4.4.4.4.4.4.4.4.4.4.4.4.4.4.4.4.4.4.4.4.4.4.",
"4.4.4.4.4.4.4.4.4.4.4.4.4.4.4.3.$.x e e e u _ ..^ ^  .[ F t t c *.4.4.4.C s.b.b.b.b.b.g.x 7.4.4.4.4.4.4.4.4.4.4.4.4.4.4.4.4.4.4.4.4.4.4.4.4.4.4.4.4.4.4.4.4.4.4.",
"4.4.4.4.4.4.4.4.4.4.4.4.4.4.4.4.4.%.x v f p T | ^ ^  .o.] v x <.4.4.4.4.m s.b.b.b.b.b.f.c 7.4.4.4.4.4.4.4.4.4.4.4.4.4.4.4.4.4.4.4.4.4.4.4.4.4.4.4.4.4.4.4.4.4.4.",
"4.4.4.4.4.4.4.4.4.4.4.4.4.4.4.4.4.3.7.7.5.V l 0 ~ ^  .` P 7.7.4.4.4.4.4.  s.b.b.b.b.b.g.b 7.4.4.4.3.4.4.4.4.4.4.4.4.4.4.4.4.4.4.4.4.4.4.4.4.4.4.4.4.4.4.4.4.4.4.",
"4.4.4.4.4.4.4.4.4.4.4.4.4.4.4.4.4.8.4.4.4.5.+.y 0 | _ D m 4.4.4.4.4.4.3.m s.b.b.b.b.b.c.d.0.5.8.4.4.4.4.4.4.4.4.4.4.4.4.4.4.4.4.4.4.4.4.4.4.4.4.4.4.4.4.4.4.4.4.",
"4.4.4.4.4.4.4.4.4.4.4.4.4.4.4.4.4.4.4.4.4.4.2.+.l T D N >.4.4.4.4.4.4.4.m s.b.b.b.b.b.b.l.I <.4.4.4.4.4.4.4.4.4.4.4.4.4.4.4.4.4.4.4.4.4.4.4.4.4.4.4.4.4.4.4.4.4.",
"4.4.4.4.4.4.4.4.4.4.4.4.4.4.4.4.4.4.4.4.4.4.4.5.m u h &.4.4.4.4.4.4.4.4.m s.b.b.b.b.b.b.l.I <.4.4.4.4.4.4.4.4.4.4.4.4.4.4.4.4.4.4.4.4.4.4.4.4.4.4.4.4.4.4.4.4.4.",
"4.4.4.4.4.4.4.4.4.4.4.4.4.4.4.4.4.4.4.4.4.4.4.4.6.x i #.4.4.4.4.4.4.4.4.m s.b.b.b.b.b.b.l.I <.4.4.4.4.4.4.4.4.4.4.4.4.4.4.4.4.4.4.4.4.4.4.4.4.4.4.4.4.4.4.4.4.4.",
"4.4.4.4.4.4.4.4.4.4.4.4.4.4.4.4.4.4.4.4.4.4.4.4.6.x i #.4.4.4.4.4.4.4.3.C s.b.b.b.b.b.b.l.I <.8.4.4.4.4.4.4.4.4.4.4.4.4.4.4.4.4.4.4.4.4.4.4.4.4.4.4.4.4.4.4.4.4.",
"4.4.4.4.4.4.4.4.4.4.4.4.4.4.4.4.4.4.4.4.4.4.4.4.4.<.c $.4.4.4.4.4.4.4.4.*.q.s.c.b.b.b.b.l.I <.4.4.4.4.4.4.4.4.4.4.4.4.4.4.4.4.4.4.4.4.4.4.4.4.4.4.4.4.4.4.4.4.4.",
"4.4.4.4.4.4.4.4.4.4.4.4.4.4.4.4.4.4.4.4.4.4.4.4.4.4.V #.8.4.4.4.4.4.4.4.8.*.w.b.b.b.b.b.l.I <.4.4.4.4.4.4.4.4.4.4.4.4.4.4.4.4.4.4.4.4.4.4.4.4.4.4.4.4.4.4.4.4.4.",
"4.4.4.4.4.4.4.4.4.4.4.4.4.4.4.4.4.4.4.4.4.4.4.4.4.4.m #.4.4.4.4.4.4.4.4.8.#.w.b.b.b.b.b.l.I <.4.4.4.4.4.4.4.4.4.4.4.4.4.4.4.4.4.4.4.4.4.4.4.4.4.4.4.4.4.4.4.4.4.",
"4.4.4.4.4.4.4.4.4.4.4.4.4.4.4.4.4.4.4.4.4.4.4.4.4.3.m #.8.4.4.4.4.4.4.4.8.%.w.c.b.b.b.b.l.I <.4.4.4.4.4.4.4.4.4.4.4.4.4.4.4.4.4.4.4.4.4.4.4.4.4.4.4.4.4.4.4.4.4.",
"4.4.4.4.4.4.4.4.4.4.4.4.4.4.4.4.4.4.4.4.4.4.4.4.4.4.C #.8.4.4.4.4.4.4.4.4.#.w.c.b.b.b.b.l.I <.8.4.4.4.4.4.4.4.4.4.4.4.4.4.4.4.4.4.4.4.4.4.4.4.4.4.4.4.4.4.4.4.4.",
"4.4.4.4.4.4.4.4.4.4.4.4.4.4.4.4.4.4.4.4.4.4.4.4.4.4.1.6.4.4.4.4.4.4.4.8.8.#.w.b.b.b.b.b.z.I <.4.4.4.4.4.4.4.4.4.4.4.4.4.4.4.4.4.4.4.4.4.4.4.4.4.4.4.4.4.4.4.4.4.",
"4.4.4.4.4.4.4.4.4.4.4.4.4.4.4.4.4.4.4.4.4.4.4.4.4.4.4.4.4.4.4.4.4.4.8.8.8.*.q.s.s.s.s.s.a.l <.4.4.4.4.4.4.4.4.4.4.4.4.4.4.4.4.4.4.3.4.4.4.4.4.4.4.4.4.4.4.4.4.4.",
"4.4.4.4.4.4.4.4.4.4.4.4.4.4.4.4.4.4.4.4.4.4.4.4.4.4.4.4.4.4.4.4.4.4.8.8.8.8.5.m m m C C V C 5.4.4.4.4.4.4.4.4.4.4.4.4.4.4.4.4.4.4.4.4.4.4.4.4.4.4.4.4.4.4.4.4.4.",
"4.4.4.4.4.4.4.4.4.4.4.4.4.4.4.4.4.4.4.4.4.4.4.4.4.4.4.4.4.4.4.4.4.4.4.4.4.4.4.3.4.3.4.4.3.4.4.4.4.4.4.4.4.4.4.4.4.4.4.4.4.4.4.4.4.4.4.4.4.4.4.4.4.4.4.4.4.4.4.4.",
"4.4.4.4.4.4.4.4.4.4.4.4.4.4.4.4.4.4.4.4.4.4.4.4.4.4.4.4.4.4.4.4.4.4.4.4.4.4.4.4.4.4.4.4.4.4.4.4.4.4.4.4.4.4.4.4.4.4.4.4.4.4.4.4.4.4.4.4.4.4.4.4.4.4.4.4.4.4.4.4.",
"4.4.4.4.4.4.4.4.4.4.4.4.4.4.4.4.4.4.4.4.4.4.4.4.4.4.4.4.4.4.4.4.4.4.4.4.4.4.4.4.4.4.4.4.4.4.4.4.4.4.4.4.4.4.4.4.4.4.4.4.4.4.4.4.4.4.4.4.4.4.4.4.4.4.4.4.4.4.4.4.",
"4.4.4.4.4.4.4.4.4.4.4.4.4.4.4.4.4.4.4.4.4.4.4.4.4.4.4.4.4.4.4.3.4.4.4.4.4.4.4.4.4.4.4.4.4.4.4.4.4.4.4.4.4.4.4.4.4.4.4.4.4.4.4.4.4.4.4.4.4.4.4.4.4.4.4.4.4.4.4.4.",
"4.4.4.4.4.4.4.4.4.4.4.4.4.4.4.4.4.4.4.4.4.4.4.4.4.4.4.4.4.4.4.4.4.4.4.4.4.4.4.4.4.4.4.4.4.4.4.4.4.4.4.4.4.4.4.4.4.4.4.4.4.4.4.4.4.4.4.4.4.4.4.4.4.4.4.4.4.4.4.4.",
"4.4.4.4.4.4.4.4.4.4.4.4.4.4.4.4.4.4.4.4.4.4.4.4.4.4.4.4.4.4.4.4.4.4.4.4.4.4.4.4.4.4.4.4.4.4.4.4.4.4.4.4.4.4.4.4.4.4.4.4.4.4.4.4.4.4.4.4.4.4.4.4.4.4.4.4.4.4.4.4.",
"4.4.4.4.4.4.4.4.4.4.4.4.4.4.4.4.4.4.4.4.4.4.4.4.4.4.4.4.4.4.4.4.4.4.4.4.4.4.4.4.4.4.4.4.4.4.4.4.4.4.4.4.4.4.4.4.4.4.4.4.4.4.4.4.4.4.4.4.4.4.4.4.4.4.4.4.4.4.4.4.",
"4.4.4.4.4.4.4.4.4.4.4.4.4.4.4.4.4.4.4.4.4.4.4.4.4.4.4.4.4.4.4.4.4.4.4.4.4.4.4.4.4.4.4.4.4.4.4.4.4.4.4.4.4.4.4.4.4.4.4.4.4.4.4.4.4.4.4.4.4.4.4.4.4.4.4.4.4.4.4.4.",
"4.4.4.4.4.4.4.4.4.4.4.4.4.4.4.4.4.4.4.4.4.4.4.4.4.4.4.4.4.4.4.4.4.4.4.4.4.4.4.4.4.4.4.4.4.4.4.4.4.4.4.4.4.4.4.4.4.4.4.4.4.4.4.4.4.4.4.4.4.4.4.4.4.4.4.4.4.4.4.4.",
"4.4.4.4.4.4.4.4.4.4.4.4.4.4.4.4.4.4.4.4.4.4.4.4.4.4.4.4.4.4.4.4.4.4.4.4.4.4.4.4.4.4.4.4.4.4.4.4.4.4.4.4.4.4.4.4.4.4.4.4.4.4.4.4.4.4.4.4.4.4.4.4.4.4.4.4.4.4.4.4.",
"4.4.4.4.4.4.4.4.4.4.4.4.4.4.4.4.4.4.4.4.4.4.4.4.4.4.4.4.4.4.4.4.4.4.4.4.4.4.4.4.4.4.4.4.4.4.4.4.4.4.4.4.4.4.4.4.4.4.4.4.4.4.4.4.4.4.4.4.4.4.4.4.4.4.4.4.4.4.4.4.",
"4.4.4.4.4.4.4.4.4.4.4.4.4.4.4.4.4.4.4.4.4.4.4.4.4.4.4.4.4.4.4.4.4.4.4.4.4.4.4.4.4.4.4.4.4.4.4.4.4.4.4.4.4.4.4.4.4.4.4.4.4.4.4.4.4.4.4.4.4.4.4.4.4.4.4.4.4.4.4.4.",
"4.4.4.4.4.4.4.4.4.4.4.4.4.4.4.4.4.4.4.4.4.4.4.4.4.4.4.4.4.4.4.4.3.4.4.4.4.4.4.4.4.4.4.4.4.4.4.4.4.4.4.4.4.4.4.4.4.4.4.4.4.4.4.4.4.4.4.4.4.4.4.4.4.4.4.4.4.4.4.4.",
"4.4.4.4.4.4.4.4.4.4.4.4.4.4.4.4.4.4.4.4.4.4.4.4.4.4.4.4.4.4.4.4.4.4.4.4.4.4.4.4.4.4.4.4.4.4.4.4.4.4.4.4.4.4.4.4.4.4.4.4.4.4.4.4.4.4.4.4.4.4.4.4.4.4.4.4.4.4.4.4.",
"4.4.4.4.4.4.4.4.4.4.4.4.4.4.4.4.4.4.4.4.4.4.4.4.4.4.4.4.4.4.4.4.4.4.4.4.4.4.4.4.4.4.4.4.4.4.4.4.4.4.4.4.4.4.4.4.4.4.4.4.4.4.4.4.4.4.4.4.4.4.4.4.4.4.4.4.4.4.4.4.",
"4.4.4.3.4.4.4.4.4.4.4.4.4.4.4.4.4.4.4.4.4.4.4.4.4.4.4.4.4.4.4.4.4.4.4.4.4.4.4.4.4.4.4.4.4.4.4.4.4.3.4.4.4.4.4.4.4.4.4.4.4.4.4.4.4.4.4.4.4.4.4.4.4.4.4.4.4.4.4.4."
};
