/* XPM */
static char *result[] = {
/* columns rows colors chars-per-pixel */
"80 80 178 2 ",
"   c #00000E",
".  c #000314",
"X  c #0F0016",
"o  c #000718",
"O  c #0F0319",
"+  c #010B1C",
"@  c #100017",
"#  c #10031A",
"$  c #1D011C",
"%  c #25001E",
"&  c #39001F",
"*  c #0E0725",
"=  c #010F20",
"-  c #0D0D2A",
";  c #1A0525",
":  c #011425",
">  c #031728",
",  c #011A2B",
"<  c #111129",
"1  c #021F31",
"2  c #0D1E3C",
"3  c #101D3B",
"4  c #230325",
"5  c #370020",
"6  c #3A0025",
"7  c #3B022A",
"8  c #3C0430",
"9  c #3D0738",
"0  c #3E093C",
"q  c #002234",
"w  c #052738",
"e  c #0C203D",
"r  c #042A3C",
"t  c #16253C",
"y  c #410737",
"u  c #002F41",
"i  c #102E45",
"p  c #063243",
"a  c #083647",
"s  c #013A4C",
"d  c #083849",
"f  c #013E51",
"g  c #133B56",
"h  c #1C3956",
"j  c #440E48",
"k  c #490F49",
"l  c #421355",
"z  c #4D1253",
"x  c #431559",
"c  c #4F1558",
"v  c #451B67",
"b  c #551A66",
"n  c #49247E",
"m  c #5C2077",
"M  c #60257F",
"N  c #004053",
"B  c #0A4557",
"V  c #0A4459",
"C  c #05485A",
"Z  c #0A4460",
"A  c #004F62",
"S  c #1C4F6D",
"D  c #005265",
"F  c #0C5667",
"G  c #0E586A",
"H  c #10546D",
"J  c #016376",
"K  c #0E6374",
"L  c #036C7F",
"P  c #106677",
"I  c #15637B",
"U  c #4A2681",
"Y  c #4C298A",
"T  c #4F319C",
"R  c #612681",
"E  c #6C319D",
"W  c #5137AA",
"Q  c #543DBB",
"!  c #7236AA",
"~  c #7438AF",
"^  c #783CB7",
"/  c #016E81",
"(  c #0E6989",
")  c #007286",
"_  c #03748A",
"`  c #08738D",
"'  c #03798C",
"]  c #10758F",
"[  c #137B8D",
"{  c #23778F",
"}  c #5743C9",
"|  c #5846D0",
" . c #5949D6",
".. c #5A4BDB",
"X. c #704EC7",
"o. c #7A43C8",
"O. c #744DCA",
"+. c #6E52CC",
"@. c #7B4CD3",
"#. c #7E56DC",
"$. c #745EDD",
"%. c #7D58DC",
"&. c #497CC5",
"*. c #5D6AD5",
"=. c #5F74D5",
"-. c #587CD4",
";. c #6165CB",
":. c #6C67D7",
">. c #686AD6",
",. c #6D66DA",
"<. c #7362DB",
"1. c #6173D6",
"2. c #5B4DE1",
"3. c #587CE2",
"4. c #666DE0",
"5. c #6F6AE2",
"6. c #883BD2",
"7. c #8143D1",
"8. c #874BDC",
"9. c #894ADD",
"0. c #8252DC",
"q. c #874EE1",
"w. c #8A4BE1",
"e. c #9247E7",
"r. c #9049E6",
"t. c #9447EA",
"y. c #8651E1",
"u. c #8851E4",
"i. c #0B8497",
"p. c #088D9F",
"a. c #138395",
"s. c #158A9C",
"d. c #008DA1",
"f. c #138CA2",
"g. c #198DA1",
"h. c #0497AB",
"j. c #1796A8",
"k. c #1897A9",
"l. c #0F92B5",
"z. c #059DB3",
"x. c #249DBA",
"c. c #01A1B6",
"v. c #0FA1B4",
"b. c #01A3B9",
"n. c #19A6B9",
"m. c #1BA6B9",
"M. c #17A9BB",
"N. c #1AABBC",
"B. c #349CCC",
"V. c #389CCF",
"C. c #3C8EDA",
"Z. c #04ACC1",
"A. c #00B4C9",
"S. c #07B9CE",
"D. c #1CB3C5",
"F. c #17B8C9",
"G. c #0DB5D6",
"H. c #03BED3",
"J. c #1FB6D4",
"K. c #26AECC",
"L. c #28ACCB",
"P. c #26B0CD",
"I. c #33A2D3",
"U. c #1FB0E2",
"Y. c #4586C9",
"T. c #4981CB",
"R. c #4F85D3",
"E. c #4C8ADA",
"W. c #5283D3",
"Q. c #01C0D6",
"!. c #08C2D7",
"~. c #00C4DA",
"^. c #0DC6E7",
"/. c #05CEE3",
"(. c #0DC6E8",
"). c #0BCCEC",
"_. c #08D0E8",
"`. c #09D4F0",
/* pixels */
"................................................................................................................................................................",
"............2.T l x x x x x x x x l x x x l x l l x x x x x x x x l x l x x x l x x l x x x x x l x x x x x l x x x x x l x x x x l l x x x x l l n ....2.......",
"......2...2.T l 5 5 6 6 6 6 6 & 6 6 6 6 6 6 6 6 & 6 6 6 6 5 6 5 6 6 6 6 & 6 6 6 6 6 6 5 6 6 6 & & 6 6 6 6 6 5 6 6 6 6 & & 6 6 6 & 6 6 & 6 & 6 6 7 y Y ..........",
"......| W W j 6 7 6 6 6 6 6 6 6 6 6 6 6 6 6 6 6 6 6 6 6 7 6 6 6 6 6 6 6 6 6 6 6 6 6 6 6 6 6 6 6 6 6 6 6 6 6 6 6 6 6 6 6 6 6 6 6 7 6 6 6 6 7 6 6 6 6 7 T | 2.....",
".... .T 7 7 6 6 7 6 6 6 6 6 6 6 6 6 6 6 7 6 6 6 6 6 6 6 6 7 6 6 6 6 6 6 6 6 6 6 6 6 7 6 6 6 6 6 6 6 6 6 6 6 6 6 6 6 6 6 6 6 7 6 6 6 6 6 6 7 6 7 6 7 6 7 T  .....",
"..2.Y 8 6 6 6 6 6 6 6 6 6 6 6 6 7 6 6 7 6 6 7 6 7 6 6 7 7 6 7 6 7 7 6 7 6 7 6 7 6 7 6 7 7 7 6 7 7 6 7 6 6 7 7 6 7 6 7 7 6 6 6 6 7 6 6 7 6 6 6 6 6 6 6 6 8 Y ....",
"..n 0 6 6 7 6 7 6 6 6 6 7 6 7 6 6 5 k ! ! ! ! ! ! ! ! ! ! ! ! ! ! ! ! ! ! ! ! ! ! ! ! ! ! ! ! ! ! ! ! ! ! ! ! ! ! ! ! ! ! j 6 6 6 6 6 6 6 6 6 6 6 6 6 6 6 U 2...",
"..x 5 6 6 6 6 6 6 7 6 6 6 5 5 6 5 z E 8.w.w.q.w.w.9.y.9.8.w.w.w.8.w.q.w.8.w.w.w.9.w.q.w.9.w.9.9.w.9.w.q.w.w.q.w.w.w.9.9.8.E z 6 6 & 6 6 & 7 6 7 6 7 6 7 6 l T ..",
"..l 6 6 7 6 7 6 6 6 6 k c c c c z E w.8.8.8.8.8.8.8.9.9.9.8.8.8.8.8.8.8.8.8.8.8.9.8.8.8.8.8.8.8.8.8.8.8.8.8.8.8.8.8.8.8.8.w.E z c c c c k 6 6 6 6 6 7 6 7 5 l ..",
"..l 6 6 6 6 6 6 6 7 y ~ 9.8.8.8.9.8.8.8.8.8.8.8.8.8.r.e.r.8.8.8.8.8.8.8.8.8.8.8.8.8.8.8.8.8.9.8.8.8.8.8.8.8.8.8.8.8.8.8.8.8.8.8.8.8.8.8.~ y 7 6 7 6 6 6 7 & x ..",
"..x 6 6 6 6 6 6 6 y ^ 8.8.8.8.8.8.8.8.8.8.8.8.8.8.e.e.e.e.e.9.8.8.8.8.8.8.8.8.8.8.8.8.8.8.8.8.8.8.8.#.#.0.8.8.8.8.8.8.8.8.8.8.8.8.8.8.8.8.^ y 7 6 6 7 6 6 & x ..",
"..x 6 6 7 6 7 5 k ~ 8.8.8.8.8.8.8.8.8.8.8.0.0.0.0.e.e.e.e.e.9.8.8.8.8.8.8.8.8.8.8.8.8.8.8.8.8.8.8.#.%.%.0.0.8.8.8.8.8.8.8.8.8.8.8.8.8.8.8.8.! k 6 6 6 6 6 6 x ..",
"..x 6 6 6 7 6 z E 9.8.8.8.8.8.8.8.8.8.9.0.#.%.%.#.y.w.t.r.w.9.8.8.8.8.8.8.8.8.8.8.8.8.8.8.8.8.8.0.%.%.%.%.#.8.8.8.8.8.8.9.8.8.8.8.8.8.8.8.8.8.c & 6 6 6 6 6 x ..",
"..x 6 6 6 6 5 R w.8.8.8.8.8.8.8.8.8.8.0.#.%.%.%.%.%.w.w.w.8.8.8.8.8.8.8.8.8.8.9.8.8.8.8.8.8.8.8.8.#.%.%.0.0.8.8.8.8.8.8.8.8.8.8.8.8.8.8.8.8.8.c 6 6 6 6 6 & x ..",
"..x & 6 6 6 5 R w.8.8.8.8.8.8.8.8.8.0.%.#.%.%.%.%.%.%.%.#.8.8.8.8.8.9.8.8.8.8.8.9.8.8.8.8.8.8.8.8.8.#.%.0.8.8.8.8.8.8.8.8.8.8.8.8.8.8.8.8.8.8.c 6 6 6 6 6 6 x ..",
"..l 6 6 6 6 6 R w.8.8.8.8.8.8.8.9.0.0.%.%.%.%.%.%.%.%.%.%.%.8.8.8.8.8.8.8.8.8.8.8.8.8.8.8.8.9.8.8.8.8.8.8.8.8.8.8.8.8.8.8.8.8.8.8.8.8.8.8.8.8.c 6 6 7 6 7 5 x ..",
"..x & 6 6 6 6 m w.8.8.8.8.8.8.8.8.0.%.%.%.%.%.%.%.%.%.%.%.#.8.8.8.8.8.8.8.8.8.8.8.r.w.w.8.8.8.8.8.8.8.8.8.8.8.8.8.8.8.8.8.8.8.9.8.8.8.8.8.8.8.z & 6 6 7 6 6 x ..",
"..x 6 6 6 6 b ^ 9.8.8.8.8.8.8.8.8.0.%.%.%.%.%.%.%.%.%.%.%.#.8.8.8.8.8.8.8.8.8.q.r.e.t.e.w.8.8.8.8.8.8.8.8.8.8.8.8.8.8.8.8.8.8.8.8.8.8.8.8.8.9.E z 6 6 6 6 6 x  .",
"..x 6 6 6 6 ~ 8.8.8.8.8.8.8.8.8.8.0.%.%.%.%.%.%.%.%.%.%.%.#.8.8.9.8.8.8.8.8.8.8.r.e.e.e.w.9.8.8.8.8.8.8.8.8.8.8.8.8.8.8.8.8.8.8.0.8.8.8.8.8.8.u.R 6 6 7 6 6 x ..",
"..x 6 6 7 7 ! q.8.8.8.8.8.8.8.8.8.8.%.%.%.%.%.%.%.%.%.#.%.#.8.8.8.8.8.8.8.8.8.8.r.r.e.e.r.#.8.8.8.8.8.8.8.8.8.8.8.8.8.8.8.8.0.%.0.8.9.8.8.8.8.9.M & 6 6 6 & x ..",
"..x 6 6 6 7 ! 9.8.8.8.8.8.8.8.8.8.8.0.#.%.%.%.%.#.%.%.#.0.8.9.8.8.8.8.8.8.8.8.8.#.w.t.r.#.%.#.0.8.8.8.8.8.8.8.8.8.8.8.8.8.0.%.%.%.%.0.8.8.8.9.u.R 6 6 6 6 6 x ..",
"..l 6 6 6 6 ! w.8.8.8.8.9.8.8.8.8.8.8.0.#.%.%.%.%.%.%.#.8.8.8.8.8.8.8.8.8.8.8.#.#.#.0.#.%.%.%.#.0.8.8.8.8.8.8.8.8.8.8.8.8.0.%.%.%.%.0.8.8.8.8.9.R & 6 6 6 6 x ..",
"..x 6 6 6 7 ! w.8.8.8.8.8.8.8.8.8.8.8.8.0.%.%.%.%.%.#.8.8.8.8.8.8.8.8.8.8.8.8.%.%.%.#.#.%.%.%.%.0.8.8.8.8.8.8.8.8.8.8.8.8.8.#.%.0.0.8.8.8.8.8.9.R 6 6 6 6 6 l ..",
"..x 6 6 6 6 ! w.8.8.0.8.8.8.8.8.8.8.8.8.8.0.0.0.0.#.8.8.8.8.8.8.8.8.8.8.8.8.0.%.%.%.%.#.%.%.%.%.#.8.8.8.8.8.8.8.8.8.8.8.8.8.0.#.0.8.8.8.8.8.9.u.M 6 6 6 6 6 x ..",
"..x & 6 6 6 ! w.8.8.%.%.0.8.8.8.8.8.8.8.8.8.8.8.8.8.8.8.8.8.8.8.9.8.8.8.8.8.8.#.%.%.%.%.%.%.#.%.0.8.8.8.8.8.8.8.8.8.8.8.8.8.8.8.8.8.8.8.8.8.8.9.M 6 6 6 6 6 x ..",
"..x 6 6 6 7 ! w.0.#.%.%.%.#.8.8.8.8.8.8.8.8.8.8.8.8.8.8.8.8.8.8.8.8.8.8.8.8.8.%.%.%.%.%.%.%.#.#.0.8.8.8.8.8.8.8.8.8.8.8.8.8.8.8.8.8.8.8.8.8.8.9.R 6 6 7 6 & x ..",
" .x 6 6 6 7 ! w.8.%.%.%.%.0.8.8.8.8.8.8.8.8.8.8.8.8.8.8.8.8.8.8.8.8.8.8.8.8.8.0.#.#.%.%.%.%.%.#.8.8.8.8.8.8.9.8.8.8.8.8.8.8.8.8.8.8.8.8.8.8.8.u.R 6 6 6 6 6 x ..",
"..x 6 6 6 6 ! q.8.0.%.%.0.0.8.8.8.8.8.8.8.8.8.8.8.8.8.8.8.8.8.8.8.8.8.8.8.8.8.8.0.#.%.#.%.%.#.8.8.8.8.8.8.8.9.w.w.9.8.0.0.0.0.8.8.8.8.8.8.8.8.9.M & 6 6 6 & x ..",
"..x 6 6 6 6 ! 9.8.8.#.0.0.8.8.8.8.8.8.8.8.8.8.9.9.9.9.9.9.8.8.8.8.8.8.8.8.8.8.8.8.0.0.#.0.#.8.8.8.8.8.8.9.9.9.e.e.r.0.%.#.%.%.0.0.8.8.8.8.8.9.q.R 5 7 6 6 6 x ..",
"..x 6 6 6 6 ! w.8.8.8.8.8.8.8.8.8.8.8.8.8.8.8.w.e.t.9.8.8.8.8.8.8.8.8.8.8.8.8.8.8.8.8.8.8.8.8.8.8.8.8.8.9.9.e.e.e.t.w.%.%.%.%.%.0.0.8.8.8.8.8.q.R 5 6 6 6 & x ..",
"..x 5 6 6 6 ! w.8.8.8.8.8.8.8.8.8.8.8.8.#.#.0.e.e.e.e.9.8.8.8.8.8.8.8.8.8.8.8.8.8.8.8.8.8.8.8.8.8.8.8.8.8.9.r.t.e.e.w.%.%.%.%.%.%.0.8.8.8.8.8.9.R 5 6 6 6 6 x ..",
"..x 5 7 6 7 ! w.8.8.8.8.8.8.8.8.8.8.8.0.%.%.w.t.e.e.e.r.8.8.8.8.8.8.8.8.8.8.8.8.8.8.8.8.8.8.8.8.8.8.8.8.9.9.w.r.t.w.0.%.%.%.%.%.%.%.0.0.8.8.8.q.R 6 6 7 7 5 x ..",
"..x 6 6 6 6 ! w.8.8.8.8.9.9.9.8.9.0.0.%.%.%.y.u.t.e.w.8.8.8.8.8.8.8.8.8.8.8.8.8.8.8.8.8.8.8.8.8.8.8.8.8.8.8.8.q.q.y.%.%.%.%.%.%.%.%.%.0.8.8.8.9.R 5 7 6 6 6 x  .",
"..l 6 6 6 7 ! 9.8.8.8.8.8.9.7.8.8.0.%.%.%.%.%.0.w.w.0.0.8.8.8.8.8.8.8.8.8.8.9.8.8.8.8.8.8.8.8.8.9.8.8.8.8.8.8.%.%.%.%.%.%.%.%.%.%.%.%.0.8.8.8.q.R 5 6 7 6 6 x ..",
"..x 6 6 6 7 ! w.8.8.8.8.8.8.8.8.8.0.%.%.%.%.%.%.%.%.#.0.8.8.8.8.8.8.8.8.8.8.8.8.8.8.8.8.8.8.8.8.8.8.9.8.8.8.8.#.%.%.%.%.%.%.%.%.%.%.%.0.8.8.8.w.M 6 6 6 6 & x ..",
"..x 5 6 7 6 ! w.8.8.8.8.8.8.8.8.9.0.%.%.%.%.%.%.%.%.#.0.8.8.8.8.8.8.8.8.8.8.8.8.8.8.8.8.8.8.8.8.8.8.8.8.8.8.8.#.%.%.%.%.%.%.%.%.%.%.%.0.8.8.8.9.M 6 6 7 6 6 x ..",
"..x 6 6 6 7 ! w.8.8.8.8.8.8.8.8.8.0.%.%.%.%.%.%.%.%.%.y.8.8.8.8.8.8.#.#.8.8.8.8.8.8.8.9.r.r.9.9.9.8.9.7.8.8.8.8.#.%.%.%.%.%.%.%.%.%.0.8.8.8.8.q.M 6 7 6 6 6 x ..",
"..x 6 6 6 7 ! 9.8.8.8.8.8.8.8.8.8.8.#.%.%.%.%.%.%.%.0.0.8.8.8.8.8.#.#.%.#.8.8.8.8.8.9.e.e.e.r.9.8.8.8.8.8.8.8.8.0.#.%.%.%.%.%.%.%.0.8.8.8.9.8.w.M 6 6 6 6 6 x ..",
"..x & 6 6 6 ! w.8.8.8.8.8.8.8.9.8.8.8.#.%.%.%.%.%.%.8.8.8.8.9.9.0.%.%.%.#.#.8.8.8.8.w.e.e.e.e.9.8.9.8.8.8.9.8.8.8.8.%.%.%.%.%.%.0.8.9.8.9.9.w.w.M 5 6 6 6 6 l ..",
"..l 6 6 7 6 ! 9.8.8.8.8.8.8.8.8.8.8.8.8.0.%.#.%.#.8.8.8.8.8.9.7.0.#.%.#.#.8.8.8.9.9.9.r.e.e.r.r.8.8.8.8.8.8.8.8.8.8.8.#.#.#.#.#.8.8.8.9.w.r.e.w.M 6 6 6 6 6 x ..",
"..x & 6 6 7 ! 9.8.8.8.8.8.8.8.8.8.8.8.8.8.8.8.8.8.8.8.8.8.8.8.9.8.8.%.%.8.8.8.8.8.8.8.9.t.e.9.9.8.8.8.8.8.8.8.8.8.8.8.8.8.8.8.8.8.8.8.w.e.e.e.t.R & 6 7 7 5 x ..",
"..x 6 6 6 6 ! w.8.8.9.8.8.8.8.8.8.8.8.8.8.8.8.8.8.8.8.8.8.8.8.8.8.8.8.0.8.8.8.8.8.8.8.8.9.9.9.9.9.8.8.8.8.8.8.8.8.8.8.8.8.8.8.8.8.8.8.w.e.e.e.t.R 6 6 6 7 5 x  .",
"..x 6 6 6 6 ! q.8.8.8.8.8.8.8.8.8.8.8.8.8.8.8.8.8.8.8.8.8.8.8.8.8.8.8.8.8.8.8.8.8.8.8.8.8.8.8.8.8.8.8.8.8.8.8.8.8.8.8.8.8.8.8.8.8.8.9.9.r.e.e.r.R 7 6 6 6 6 x ..",
"..x 6 6 7 6 ! w.8.8.8.8.8.8.8.8.8.8.8.8.8.8.8.8.8.8.8.9.8.8.8.8.8.8.8.8.8.8.8.8.8.8.8.8.8.8.8.8.8.8.8.8.8.8.8.8.8.8.8.8.8.8.8.8.8.8.8.8.9.r.r.9.R 6 7 6 6 & x ..",
"..x 6 6 6 6 ! w.8.8.8.8.8.8.8.9.8.8.8.8.8.8.8.8.8.8.8.8.8.8.8.8.8.8.8.8.8.8.8.8.8.8.8.8.8.9.8.8.8.8.8.8.8.8.8.8.8.8.8.8.8.8.8.8.9.8.8.8.8.8.9.w.R & 6 6 6 6 x ..",
"..l 6 6 6 7 ! q.9.8.8.8.8.8.8.8.8.8.8.8.8.8.8.8.8.8.8.8.8.8.8.8.8.8.8.8.8.8.8.8.8.8.8.8.8.8.8.8.8.8.8.8.8.8.8.8.8.8.8.8.8.8.8.8.8.8.8.8.8.8.8.9.R 6 6 6 6 & x ..",
"..x 6 6 6 6 ! w.8.8.8.8.8.8.8.8.9.8.8.8.8.8.8.9.e.e.9.9.8.8.8.8.8.8.8.8.8.8.8.8.8.8.8.8.8.8.8.9.8.8.8.8.8.8.8.8.8.8.8.8.8.8.8.8.8.8.8.8.8.8.8.q.M 6 6 6 6 6 x ..",
"..x 5 6 7 6 ! w.8.8.8.8.8.8.8.8.8.8.8.8.8.9.w.w.e.e.9.9.8.8.8.8.8.8.8.8.8.8.8.8.8.8.8.8.8.8.0.0.0.#.8.8.8.8.8.8.8.8.8.8.8.8.8.8.8.8.8.8.8.8.9.9.M 6 6 7 6 6 x ..",
"..x 6 6 7 6 ! w.8.8.8.8.8.8.8.8.8.8.8.8.8.8.r.e.e.e.e.w.8.8.8.8.8.8.8.8.8.8.8.8.8.8.8.8.8.0.0.%.#.%.%.0.8.8.8.8.8.8.8.8.8.8.8.8.8.8.8.8.0.0.8.q.R 5 7 7 6 & x ..",
"..x 6 6 6 6 ! q.8.8.8.8.8.8.8.8.8.8.8.8.8.8.w.e.e.e.r.r.8.8.8.9.8.8.8.8.8.8.8.8.8.8.8.8.8.%.%.%.%.%.%.#.0.8.8.8.8.8.8.8.8.8.8.8.8.8.8.0.%.0.8.8.R 5 6 7 6 6 x ..",
"..x 6 6 6 7 ! w.8.8.8.8.8.8.8.8.8.8.8.8.8.8.8.9.e.e.9.8.8.8.8.8.8.8.8.8.8.8.8.8.8.8.8.8.0.%.%.%.%.%.%.%.#.#.8.8.8.8.8.8.8.8.8.8.8.9.0.<.%.%.0.u.M 6 6 6 6 6 x ..",
"..x & 6 6 6 ! w.8.8.8.0.#.0.#.0.8.8.8.8.8.8.8.9.9.9.8.8.8.8.9.8.8.8.8.8.8.8.8.8.8.8.8.0.%.%.%.%.%.%.%.%.#.0.8.8.8.8.8.8.8.8.8.8.9.9.0.0.%.%.%.0.M & 6 7 6 6 x ..",
"..l & 6 6 6 ! w.8.8.0.#.#.%.%.%.0.8.8.8.8.8.8.8.9.9.8.8.8.8.8.8.8.8.8.8.8.8.8.8.8.8.8.0.%.%.%.%.%.%.%.%.%.#.8.8.8.8.8.8.8.8.8.8.8.8.0.0.%.%.0.8.R 6 7 6 6 6 x ..",
"..x 6 6 6 6 ! 9.8.8.#.%.#.#.%.%.%.0.0.8.8.8.8.8.8.8.9.8.8.8.8.9.8.8.8.8.8.8.8.8.8.8.8.8.%.%.%.%.%.%.%.%.#.#.8.8.8.8.8.8.8.8.8.8.8.8.8.0.0.0.8.w.R & 6 6 6 6 l ..",
"..x 6 6 7 6 ! q.0.%.#.%.%.%.%.%.%.%.0.8.8.8.8.8.8.8.8.8.9.8.8.8.8.8.8.8.8.8.8.8.8.8.8.8.%.%.%.%.#.%.%.%.#.#.8.8.8.8.8.8.8.8.8.8.8.8.8.8.8.8.8.9.M 5 6 6 6 6 l ..",
"..x 6 6 6 7 ! w.8.%.%.%.%.%.%.%.%.%.0.8.8.8.8.8.8.8.8.8.8.8.8.8.8.8.8.8.8.8.8.8.8.8.8.8.8.%.%.%.%.%.%.%.0.8.8.8.8.9.8.8.8.8.8.9.8.8.8.8.8.8.9.u.R 6 6 6 6 6 x ..",
"..x 6 6 6 7 ! q.0.%.%.%.%.#.%.%.%.%.0.9.9.9.8.8.8.8.8.8.8.8.8.8.8.8.8.8.8.8.8.8.8.8.8.8.8.8.0.%.#.#.%.8.8.8.8.8.8.8.8.8.8.8.8.8.8.8.8.8.8.8.8.9.M 6 6 7 6 6 x ..",
"..l 6 6 6 6 ! w.8.%.%.%.%.#.y.y.0.%.0.0.9.0.8.8.8.8.8.8.8.8.8.8.8.8.8.8.8.8.8.8.8.8.8.8.8.8.0.0.#.0.#.8.8.8.8.8.8.8.8.8.8.9.8.8.8.8.8.8.8.8.8.9.R 6 6 6 6 & x ..",
"..x 6 6 6 7 ! 9.0.#.%.%.0.q.e.e.8.0.8.8.8.8.8.8.8.8.8.8.8.8.8.8.8.8.8.8.8.8.8.8.8.8.8.8.8.8.8.8.8.8.8.8.8.8.8.8.8.8.8.8.8.8.8.8.8.8.8.8.8.8.8.u.R 5 6 6 6 6 x ..",
"..x 6 6 6 6 ! w.8.8.#.%.y.e.e.e.e.9.8.8.8.8.8.8.8.8.8.8.8.8.8.8.8.8.8.8.8.8.8.8.8.8.8.8.8.8.8.8.8.8.8.8.8.8.8.8.8.8.8.8.8.8.8.8.8.8.8.8.8.8.8.9.M 6 6 6 6 & x ..",
"..x 6 6 6 7 ! q.8.8.8.#.y.e.e.e.e.r.8.8.8.8.9.8.8.8.8.8.8.8.8.8.8.0.%.%.8.8.8.8.8.8.8.8.9.9.8.8.8.8.8.8.8.8.8.8.8.8.8.8.8.8.8.8.8.8.8.8.8.8.9.w.R 6 6 6 6 6 x ..",
"..l 6 6 6 6 ! w.8.8.8.8.8.w.e.e.9.9.8.8.8.8.8.8.8.8.8.8.8.8.8.8.0.0.%.%.0.0.8.8.8.8.8.8.9.7.9.8.8.8.8.8.8.8.8.8.8.8.8.8.8.8.8.9.8.8.8.8.8.8.8.q.R 5 6 6 6 & x ..",
"..x 6 6 6 7 ! 8.8.8.9.8.8.9.w.w.9.8.8.8.8.8.8.8.8.8.8.8.8.8.8.8.0.%.%.%.0.0.8.8.8.8.8.8.8.8.8.8.8.8.8.8.8.8.8.8.8.8.8.8.8.#.8.#.0.8.8.8.8.8.8.q.R 5 6 6 6 6 x ..",
"..l 6 6 6 7 ! w.8.8.8.8.8.9.9.9.8.8.8.8.8.8.8.8.8.8.8.8.8.8.8.8.0.0.%.%.0.0.8.8.8.8.8.8.8.8.8.8.8.8.8.8.8.8.8.8.8.8.8.0.#.#.#.#.0.0.8.8.8.8.8.8.R 6 7 6 6 6 x ..",
"..l & 6 6 7 ! w.8.8.8.8.8.8.8.8.8.8.9.8.8.8.8.8.8.8.8.8.8.8.8.8.8.8.0.%.0.8.8.8.8.8.8.8.8.8.8.8.8.8.8.8.8.8.8.8.8.8.0.%.%.%.%.%.%.%.0.8.8.8.8.u.M 6 6 6 6 6 x ..",
"..x 6 6 6 6 ! 9.8.8.8.8.8.8.8.8.8.8.8.8.8.8.8.8.8.8.8.8.8.8.8.8.8.8.8.8.8.8.8.8.8.8.8.8.8.8.9.8.8.8.8.8.8.8.8.8.0.0.0.0.%.%.%.%.%.%.0.0.8.8.9.9.M 6 6 6 6 6 x ..",
"..x 6 6 6 7 ! q.8.8.8.8.8.8.8.8.8.8.8.8.8.8.8.8.8.8.9.9.8.8.9.9.8.8.8.8.8.8.8.8.8.9.8.8.8.8.8.9.9.9.9.8.8.8.8.8.0.%.%.%.%.0.%.%.%.%.%.0.0.8.8.9.M 6 7 6 6 & l ..",
"..x 6 6 6 6 ! w.9.8.8.8.8.8.8.9.9.9.9.8.8.1.:.9.8.8.1.W.=.8.E.$.8.8.0.-.%.8.8.8.-.0.9.8.9.8.9.:.1.7.8.8.9.9.9.8.0.0.%.%.%.0.u.0.%.0.0.<.0.9.9.u.M 6 6 6 6 6 x ..",
"..x 6 6 6 6 ~ %.,.8.4.%.8.8.8.:.@.#.$.8.8.B.R.9.8.8.V.P.W.%.).4.9.8.0.P.W.%.9.%.J.5.t.w.<.y.9.E.I.q.q.5.$.%.>.#.0.,.:.0.y.<.y.r.0.1.1.<.0.8.:.0.R 6 6 6 6 6 l ..",
"..l 6 6 6 7 E T.B.+.(.3.@.o.+.K.;.&.B.o.o.B.T.o.o.%.I.T.o.+.(.3.@.o.X.x.F.&.o.+.^.>.6.;.L.+.o.C.U.o.o.U.E.*.G.+.O.Y.I.X.7.I.E.y.@.L.N.&.O.<.P.;.m & 6 6 6 6 x ..",
"..x 6 6 6 6 ; _ z.e Q.).( * e H.g I g.- - c.` * e G.J.I * 2 Q.`.( * * > b.` * e H.Z * g n.2 * ` z.- - z.` Z /.e * I s.- < z.`.l.3 m.B = g L.P.B 4 6 6 6 6 6 x ..",
"..x 6 6 6 7 O q p + s v.K   o s : / h.o . c.)   , Q.J , . + s f q . . o b.~.) o s :   s S.> . q u o o z./ f H., / H.z.o o u i.f.: !.d   N /._.N $ 7 7 6 6 & x ..",
"..x 6 6 6 6 # . . . . s.j.B o   . ) b.= F L s . , ~.s . . .     . q J + D ) D . . . s h.~., .   . o o z./ , J : b.Z.A o o   G m.K L q   1 ) L q $ 7 6 6 6 6 l ..",
"..l 6 6 6 6 # o : p o K s.P + s : D ) > m.a   o : p.u   : N f : . s !.B =   : p o . A b.d.: w d r o o _ D : p + ) D . . . . V s.[ = . 1 w     . $ 7 6 6 6 6 x ..",
"..x 6 6 6 6 # . a n.w o o . , Q.s . o : m.d . o : o o . s H.H.C o p m.m.p   d n.: : , : o o s.F.] o o o . f Q.r o . . o > o o o > o   K s.o > = % 6 7 6 6 6 x ..",
"..l 6 6 6 6 # . a P.m.p . . , Q.N . o , H.f   p j.: o o o , , a.G o > : o . f H., p.~.d.o o z.' + . o . . N /.M.p . o : j.p . p j.: . K s.> k.a $ 7 6 6 6 6 x ..",
"..Q v 6 6 6 # o : B !.s   o , ~.A.D . , Q.f . s /.b.u . o . o s.N.K o . o . f Q., r i.F.[ : b.) . o . o . : C D.k.V . , S.s   f S.,   ) z.> N.b.S & 6 6 6 v Q 2.",
"..2.U & 6 6 O o . + J ) s . = J ) s . + J q . q / ) q . o o o B K V o o . . q J = . r [ N., D s . . o o o . o F K a . , ~.N . q J = . s D + F L h 6 6 6 & n 2...",
"..2.T l l 7 $ O O # # [ H @ # @ @ # # # # # # # @ @ # # # # @ @ @ # # # # # O # O O X t { < @ # # @ # # @ # # # # # # < f.i # # @ # # @ # # @ @ % 6 7 l l T ....",
"........} 9 6 6 5 7 6 7 6 6 6 6 6 7 6 6 6 6 6 6 6 6 6 6 7 6 6 6 7 6 6 6 7 6 6 7 6 6 7 6 6 6 6 6 7 7 6 6 6 6 6 6 6 6 6 7 6 6 6 6 7 7 6 6 6 7 6 6 6 6 9 } ........"
};
