/* XPM */
static char *result[] = {
/* columns rows colors chars-per-pixel */
"80 80 63 1 ",
"  c #5A4BDC",
". c #5A4BDB",
"X c #5B4DE1",
"o c #4F319C",
"O c #421456",
"+ c #431559",
"@ c #431458",
"# c #471D5C",
"$ c #523163",
"% c #49247E",
"& c #5A4CDF",
"* c #5A4BDD",
"= c #5B4CE0",
"- c #5B4CDF",
"; c #4F319D",
": c #411150",
"> c #390021",
", c #390022",
"< c #3F0927",
"1 c #4F2632",
"2 c #3E093C",
"3 c #4C298A",
"4 c #5949D6",
"5 c #5A4CDE",
"6 c #5846CF",
"7 c #5137AA",
"8 c #5136A9",
"9 c #400E48",
"0 c #3A0026",
"q c #400B2A",
"w c #4F2735",
"e c #3A0024",
"r c #3C0430",
"t c #5846D0",
"y c #3A0127",
"u c #3A0027",
"i c #4A2682",
"p c #5B4EE2",
"a c #421252",
"s c #3F0A2A",
"d c #390025",
"f c #44122D",
"g c #3E0829",
"h c #4F2835",
"j c #491C31",
"k c #4B2032",
"l c #502936",
"z c #4A1D31",
"x c #420E2B",
"c c #45142E",
"v c #390023",
"b c #543DBB",
"n c #451B67",
"m c #3A0023",
"M c #4A2681",
"N c #39001F",
"B c #4E309A",
"V c #421354",
"C c #3B022B",
"Z c #5743C9",
"A c #3D0738",
"S c #3A0025",
"D c white",
/* pixels */
"        ..................................................................      ",
"      XoO++++++++++++++++++++++++++++@#$$#@+++++++++++++++++++++++++++++O%&     ",
"   *=-;:>,,,,,,,,,,,,,,,,,,,,,,,,,,,,,<11<,,,,,,,,,,,,,,,,,,,,,,,,,,,,,,>2345   ",
"  56789>000000000000000000000000000000qwwq0000000000000000000000000000000er;t5  ",
"  4;yu00000000000000000000000000000000qwwq000000000000000000000000000000000y;4  ",
" &3r0000000000000000000000000000000000qwwq0000000000000000000000000000000000r3- ",
".%2e0000000000000000000000000000000000qwwq0000000000000000000000000000000000,ip ",
".O>00000000000000000000000000000000000qwwq0000000000000000000000000000000000eao ",
".+,00000000000000000000000000000000000qwwq00000000000000000000000000000000000>O.",
".+,00000000000000000000000000000000000qwwq00000000000000000000000000000000000,+.",
".+,00000000000000000000000000000000000qwwq00000000000000000000000000000000000,+.",
".+,00000000000000000000000000000000000qwwq00000000000000000000000000000000000,+.",
".+,00000000000000000000000000000000000qwwq00000000000000000000000000000000000,+.",
".+,00000000000000000000000000000000000qwwq00000000000000000000000000000000000,+.",
".+,00000000000000000000000000000000000qwwq00000000000000000000000000000000000,+.",
".+,00000000000000000000000000000000000qwwq00000000000000000000000000000000000,+.",
".+,00000000000000000000000000000000000qwwq00000000000000000000000000000000000,+.",
".+,00000000000000000000000000000000000qwwq00000000000000000000000000000000000,+.",
".+,00000000000000000000000000000000000qwwq00000000000000000000000000000000000,+.",
".+,00000000000000000000000000000000000qwwq00000000000000000000000000000000000,+.",
".+,00000000000000000000000000000000000qwwq00000000000000000000000000000000000,+.",
".+,00000000000000000000000000000000000qwwq00000000000000000000000000000000000,+.",
".+,00000000000000000000000000000000000qwwq00000000000000000000000000000000000,+.",
".+,00000000000000000000000000000000000qwwq00000000000000000000000000000000000,+.",
".+,00000000000000000000000000000000000qwwq00000000000000000000000000000000000,+.",
".+,00000000000000000000000000000000000qwwq00000000000000000000000000000000000,+.",
".+,00000000000000000000000000000000000qwwq00000000000000000000000000000000000,+.",
".+,00000000000000000000000000000000000qwwq00000000000000000000000000000000000,+.",
".+,00000000000000000000000000000000000qwwq00000000000000000000000000000000000,+.",
".+,00000000000000000000000000000000000qwwq00000000000000000000000000000000000,+.",
".+,00000000000000000000000000000000000qwwq00000000000000000000000000000000000,+.",
".+,00000000000000000000000000000000000qwwq00000000000000000000000000000000000,+.",
".+,00000000000000000000000000000000000qwwq00000000000000000000000000000000000,+.",
".+,00000000000000000000000000000000000qwwq00000000000000000000000000000000000,+.",
".+,00000000000000000000000000000000000qwwq00000000000000000000000000000000000,+.",
".+,00000000000000000000000000000000000qwwq00000000000000000000000000000000000,+.",
".+,00000000000000000000000000000000000qwwq00000000000000000000000000000000000,+.",
".+,00000000000000000000000000000000000qwwq00000000000000000000000000000000000,+.",
".+,00000000000000000000000000000000000qwwq00000000000000000000000000000000000,+.",
".+,00000000000000000000000000000000000qwwq00000000000000000000000000000000000,+.",
".+,00000000000000000000000000000000000qwwq00000000000000000000000000000000000,+.",
".+,00000000000000000000000000000000000qwwq00000000000000000000000000000000000,+.",
".+,00000000000000000000000000000000000qwwsd0000000000000000000000000000000000,+.",
".+,00000000000000000000000000000000000qwwfsqqqqqg0000000000000000000000000000,+.",
".+,00000000000000000000000000000000000qwwwwwwwwhj0000000000000000000000000000,+.",
".+,00000000000000000000000000000000000qwwwwwwwwhj0000000000000000000000000000,+.",
".+,00000000000000000000000000000000000qwwfsqqqklz0000000000000000000000000000,+.",
".+,00000000000000000000000000000000000qwwsd000xcx0000000000000000000000000000,+.",
".+,00000000000000000000000000000000000qwwq00000000000000000000000000000000000,+.",
".+,00000000000000000000000000000000000qwwq00000000000000000000000000000000000,+.",
".+,00000000000000000000000000000000000qwwq00000000000000000000000000000000000,+.",
".+,00000000000000000000000000000000000qwwq00000000000000000000000000000000000,+.",
".+,00000000000000000000000000000000000qwwq00000000000000000000000000000000000,+.",
".+,00000000000000000000000000000000000qwwq00000000000000000000000000000000000,+.",
".+,00000000000000000000000000000000000qwwq00000000000000000000000000000000000,+.",
".+,00000000000000000000000000000000000qwwq00000000000000000000000000000000000,+.",
".+,00000000000000000000000000000000000qwwq00000000000000000000000000000000000,+.",
".+,00000000000000000000000000000000000qwwq00000000000000000000000000000000000,+.",
".+,00000000000000000000000000000000000qwwq00000000000000000000000000000000000,+.",
".+,00000000000000000000000000000000000qwwq00000000000000000000000000000000000,+.",
".+,00000000000000000000000000000000000qwwq00000000000000000000000000000000000,+.",
".+,00000000000000000000000000000000000qwwq00000000000000000000000000000000000,+.",
".+,00000000000000000000000000000000000qwwq00000000000000000000000000000000000,+.",
".+,00000000000000000000000000000000000qwwq00000000000000000000000000000000000,+.",
".+,00000000000000000000000000000000000qwwq00000000000000000000000000000000000,+.",
".+,00000000000000000000000000000000000qwwq00000000000000000000000000000000000,+.",
".+,00000000000000000000000000000000000qwwq00000000000000000000000000000000000,+.",
".+,00000000000000000000000000000000000qwwq00000000000000000000000000000000000,+.",
".+,00000000000000000000000000000000000qwwq00000000000000000000000000000000000,+.",
".+,00000000000000000000000000000000000qwwq00000000000000000000000000000000000,+.",
".+,00000000000000000000000000000000000qwwq00000000000000000000000000000000000,+.",
".+,00000000000000000000000000000000000qwwq00000000000000000000000000000000000,+.",
".+,00000000000000000000000000000000000qwwq00000000000000000000000000000000000,+.",
".+,00000000000000000000000000000000000qwwq00000000000000000000000000000000000,+.",
".+,00000000000000000000000000000000000qwwq00000000000000000000000000000000000,+.",
".+v00000000000000000000000000000000000qwwq00000000000000000000000000000000000v+.",
" bnm0000000000000000000000000000000000qwwq0000000000000000000000000000000000mnb ",
" pMNv000000000000000000000000000000000qwwq000000000000000000000000000000000vNMp ",
" &BOVC00000000000000000000000000000000qwwq00000000000000000000000000000000CVOB& ",
"    ZAS0000000000000000000000000000000qwwq0000000000000000000000000000000SAZ    "
};
