/* XPM */
static char *_099ee43e3074437f420671924a8128aH5cQ7s66FVXoyT1J[] = {
/* columns rows colors chars-per-pixel */
"64 64 151 2 ",
"   c None",
".  c #9BABC2",
"X  c #A1AFC6",
"o  c #A2B1C6",
"O  c #A6B4C9",
"+  c #A9B7CB",
"@  c #ACBACD",
"#  c #B0BDCF",
"$  c #ACBDD4",
"%  c #B1BED2",
"&  c #AFC0D6",
"*  c #B4C2D5",
"=  c #B9C5D6",
"-  c #BDC8D7",
";  c #B5C4D8",
":  c #B9C7DA",
">  c #BDC9DB",
",  c #B9C9E0",
"<  c #C2CDDC",
"1  c #C3CEDC",
"2  c #C1CDDE",
"3  c #C2CDDE",
"4  c #C1CEDE",
"5  c #C2CEDE",
"6  c #C2CFDE",
"7  c #C3CFDE",
"8  c #C3CEDF",
"9  c #C3CFDF",
"0  c #C0CDDD",
"q  c #C4CEDC",
"w  c #C5CEDD",
"e  c #C4CFDF",
"r  c #C2CDDC",
"t  c #C6D0DD",
"y  c #C5D0DF",
"u  c #C6D1DE",
"i  c #C7D1DE",
"p  c #C6D0DF",
"a  c #C7D0DF",
"s  c #C6D0DE",
"d  c #C8D2DF",
"f  c #C9D2DF",
"g  c #C0CEE2",
"h  c #C1CEE2",
"j  c #C0CFE2",
"k  c #C1CFE2",
"l  c #C2CFE2",
"z  c #C2CFE3",
"x  c #C1CFE2",
"c  c #C2D0E2",
"v  c #C3D1E2",
"b  c #C2D0E3",
"n  c #C3D0E3",
"m  c #C4D0E0",
"M  c #C5D0E0",
"N  c #C5D1E1",
"B  c #C6D1E0",
"V  c #C6D2E0",
"C  c #C7D2E1",
"Z  c #C4D0E2",
"A  c #C4D1E3",
"S  c #C5D1E3",
"D  c #C6D1E3",
"F  c #C4D2E3",
"G  c #C5D2E3",
"H  c #C5D3E3",
"J  c #C7D2E2",
"K  c #C6D2E3",
"L  c #C7D2E3",
"P  c #C6D3E3",
"I  c #C7D3E3",
"U  c #C7D3E4",
"Y  c #C4D1E2",
"T  c #C8D2E0",
"R  c #C9D2E0",
"E  c #C8D2E1",
"W  c #C8D3E1",
"Q  c #C9D3E1",
"!  c #C9D3E2",
"~  c #C8D3E3",
"^  c #CCD3E1",
"/  c #C9D4E1",
"(  c #CBD4E1",
")  c #C8D4E3",
"_  c #C9D5E3",
"`  c #CAD4E2",
"'  c #CAD5E2",
"]  c #CBD5E2",
"[  c #CAD4E3",
"{  c #CBD5E3",
"}  c #CBD6E3",
"|  c #CCD5E1",
" . c #CCD4E2",
".. c #CCD5E2",
"X. c #CCD5E3",
"o. c #CCD6E2",
"O. c #CCD6E3",
"+. c #CDD6E3",
"@. c #CDD7E3",
"#. c #CED6E3",
"$. c #CED7E3",
"%. c #CFD7E3",
"&. c #C8D3E4",
"*. c #C9D3E4",
"=. c #C9D4E4",
"-. c #CAD5E4",
";. c #CBD5E4",
":. c #CBD6E4",
">. c #CDD5E4",
",. c #CCD6E4",
"<. c #CDD6E4",
"1. c #CDD7E4",
"2. c #CCD6E5",
"3. c #CDD6E5",
"4. c #CED6E4",
"5. c #CED7E4",
"6. c #CFD7E4",
"7. c #CED7E5",
"8. c #CED7E6",
"9. c #CBD5E3",
"0. c #CFD8E3",
"q. c #CFD8E4",
"w. c #CFD9E4",
"e. c #CED8E5",
"r. c #CFD8E5",
"t. c #CED9E5",
"y. c #CFD9E5",
"u. c #CED8E6",
"i. c #CFD8E5",
"p. c #D0D7E3",
"a. c #D0D8E3",
"s. c #D0D8E4",
"d. c #D0D9E4",
"f. c #D1D8E5",
"g. c #D0D9E5",
"h. c #D1D9E5",
"j. c #D2D9E5",
"k. c #D0DAE5",
"l. c #D1DAE5",
"z. c #D2DAE5",
"x. c #D3DAE5",
"c. c #D2DBE5",
"v. c #D3DBE5",
"b. c #D0D9E6",
"n. c #D1DAE6",
"m. c #D2DAE6",
"M. c #D3DAE6",
"N. c #D2DBE6",
"B. c #D3DBE6",
"V. c #D4DBE7",
"C. c #D2DBE6",
/* pixels */
"                                                                                                                                ",
"                                                                                                                                ",
"                                                                                                                                ",
"      V.l.^ d l.l.l.l.l.l.l.l.8.8.u.l.l.l.l.l.l.l.l.l.l.l.l.l.l.l.l.l.l.l.l.l.l.l.l.l.l.l.l.l.l.l.l.l.l.l.l.....l.l.l.l.V.      ",
"      l.@ . . . o = l.l.8.h , , , , , ;.< > > > : : : : : : : : > < Z ..l.&.Z Z Z h h h Z [ 8.l.l.l.Z > : $ $ $ $ & : l.l.      ",
"      l.+ . . . . r > $ : < [ ;.c , c > $ $ $ $ $ $ $ $ $ $ $ $ $ $ $ $ l., , , , , , , , , , &.Z $ $ $ $ $ $ $ $ $ $ l.l.      ",
"      l.+ . . . - : $ $ $ $ $ * > ! [ $ $ $ $ $ $ $ $ $ $ $ $ $ $ $ $ = l., , , , , , , , , , u.: $ $ $ $ $ $ $ $ $ $ 8.l.      ",
"      l.+ . . = : $ $ $ $ $ $ $ $ $ ! : $ $ $ $ $ $ $ $ $ $ $ $ $ $ $ : l., , , , , , , , , , u.$ $ $ $ $ $ $ $ $ $ $ ! l.      ",
"      l.= . = : $ $ $ $ $ $ $ $ $ $ $ ..: $ $ $ $ $ $ $ $ $ $ $ $ $ $ Z l.l.l.l.l.l.Z , , , Z < $ $ $ $ $ $ $ $ $ $ $ t l.      ",
"      8.l.r Z $ $ $ $ $ $ $ $ $ $ $ $ * 8.* $ $ $ $ $ $ $ $ $ $ $ $ Z l.> % * = = t l.l.Z Z u.< $ $ $ $ $ * * $ $ $ $ 8.l.      ",
"      [ , l.% $ $ $ $ $ $ $ $ $ $ $ $ $ < < $ $ $ $ $ $ $ $ $ $ $ ! l.= . . . . . . + ! ..! [ l.[ * $ : Z l.l.< $ $ t l.l.      ",
"      8., Z < $ $ $ $ $ $ $ $ $ $ $ $ $ : ! $ $ $ $ $ & $ $ $ $ [ l.@ . . . . . . . . O : $ $ * ! l...u.< : ..l.u.q l.l.l.      ",
"      u., Z l.: $ $ $ $ $ $ $ $ $ $ $ $ $ l.& < ..l.l...l.< = [ 0.+ . . . . . . . . . % ; $ $ $ $ : : $ $ $ $ > l.l.l.l.l.      ",
"      l., c < q p.! > * $ $ $ $ $ $ $ $ $ 8.l.< : * $ $ ; ! l.l.o . . . . . . . . . . - $ $ $ $ $ $ $ $ $ $ $ $ * l.l.l.l.      ",
"      l., 8.. . . O * < [ < : $ $ $ $ $ $ ..t $ $ $ $ $ $ $ > l.. . . . . . . . . . . t $ $ $ $ $ $ $ $ $ $ $ $ = l.l.l.l.      ",
"      l.Z = . . . . . . . + t Z $ $ $ $ : [ $ $ $ $ $ $ $ $ : l.. . . . . . . . . . o Z $ $ $ $ $ $ $ $ $ $ $ $ > l.l.l.V.      ",
"      l.l.o . . . . . . . . O l.$ : Z Z a.; $ $ $ $ $ $ $ $ : l.. . . . . . . . . . @ < $ $ $ $ $ $ $ $ $ $ $ $ Z l.l.l.l.      ",
"      l.> . . . . . . . . . . r u.l.Z Z u.l.! : $ $ $ $ $ $ : l.. . . . . . . . . o t < $ $ $ $ $ $ $ $ $ $ $ $ l.l.[ l.l.      ",
"      l.> . . . . . . . . . + l.l.h , , , , c ;.8.: $ $ $ $ : l.# o . . . . . . @ ..l...$ $ $ $ $ $ $ $ $ $ $ > l.> > l.l.      ",
"      l.< . . . . . . . . . 8.l., , , , , , , , , u.; $ $ $ < 8.l.l...< * + . - l.;.U l.; $ $ $ $ $ $ $ $ $ ; l.t $ : l.l.      ",
"      l.t . . . . . . . . . l., , , , , , , , , , c 8.$ $ q ! $ $ : > ! l.l.l.l.Z , , ;.< $ $ $ $ $ $ $ $ $ ..[ $ $ * V.l.      ",
"      l.... . . . . . . . . l., , , , , , , , , , , u.! ..! $ $ $ $ $ $ $ : [ l.h , , , 8.< : ; $ $ $ $ $ Z ..& $ $ $ l.l.      ",
"      l.l.. . . . . . . . . .., , , , , , , , , , , c l.[ $ $ $ $ $ $ $ $ $ Z l., , , , , ;.l.l.l.8.! < < l.* $ $ $ $ ..l.      ",
"      l.l.o . . . . . . . . ! , , , , , , , , , , , , ..$ $ $ $ $ $ $ $ $ $ ! l., , , , , , , U l.l.l.l.l.: $ $ $ $ $ ! l.      ",
"      l.l.l.q % O @ = r ..l.l.! , , , , , , , , , , , [ $ $ $ $ $ $ $ $ $ $ [ l., , , , , , , , , , Z 8.l.$ $ $ $ $ $ t l.      ",
"      l.l.l.l.l.l.l.! q > : $ * ! Z , , , , , , , , , Z : $ $ $ $ $ $ $ $ : l.Z , , , , , , , , , , , , 8.$ $ $ $ $ * l.l.      ",
"      l., , , ;.> $ $ $ $ $ $ $ $ < l.Z , , , , , , Z > Z $ $ $ $ $ $ $ ; l.l., , , , , , , , , , , , , 8.$ $ $ $ $ Z l.l.      ",
"      l.h , , , : $ $ $ $ $ $ $ $ $ * > ! ;.c , 8.= . . o t * $ $ $ $ > u.l.;., , , , , , , , , , , , , 8.: ; * * : l.l.l.      ",
"      B.h , , , ; $ $ $ $ $ $ $ $ $ $ $ $ $ : l.= . . . . X ! $ $ : Z h , c u.l.Z , , , , , , , , , , , 8.l.l.l.l.l.l.l.l.      ",
"      V., , , , * $ $ $ $ $ $ $ $ $ $ $ $ $ $ r . . . . . . r : Z , , , , , , u.l.h , , , , , , , , , , 8.l...q = % < l.l.      ",
"      l.h , , [ $ $ $ $ $ $ $ $ $ $ $ $ $ $ * @ . . . . . . > Z , , , , , , , ;.l.Z , , , , , , , , , , l.% . . . . = l.l.      ",
"      V., , , l.$ $ $ $ $ $ $ $ $ $ $ $ $ $ < O . . . . . . * Z , , , , , , , Z l.[ , , , , , , , , h l.* . . . . . % l.l.      ",
"      l., , c l.: $ $ $ $ $ $ $ $ $ $ $ $ $ u.. . . . . . . . .., , , , , , , , l.8., , , , , , , Z l.= . . . . . . @ l.l.      ",
"      l.h , ;.l...$ $ $ $ $ $ $ $ $ $ $ $ : ... . . . . . . . * c , , , , , , , l.l.;., , , , , ;.l.% . . . . . . . O l.l.      ",
"      l.c , h l.l.> $ $ $ $ $ $ $ $ $ $ $ * l.. . . . . . . . . [ , , , , , , , l.l.l.l.l.Z , 8.r o . . . . . . . . . l.l.      ",
"      l.Z , , l.l.l.* $ $ $ $ $ $ $ $ $ $ $ l.+ . . . . . . . . q , , , , , , h r . O + % = a.... . . . . . . . . . . l.l.      ",
"      l.Z , , ;.l.l.! % $ $ $ $ $ $ $ $ $ $ [ * . . . . . . . . - , , , , , , [ = . . . . . O ..t . . . . . . . . . o l.l.      ",
"      l.;., , , l.l.l.l.l.l.l.8...[ ....l.l.l.l.% . . . . . . . % h , , , , , l.= . . . . . . o ..= . . . . . . . . O l.l.      ",
"      l.8., , , l.l.q < r > - = = * * * ....O > l...* . . . . . = l., , , , 8.l.O . . . . . . . * r . . . . . . . . O l.l.      ",
"      l.8., , , l.= . . . . . . . . . # a.O . . @ ..l...* . . . ..l.u.h 8.l.l.# . . . . . . . . @ d . . . . . . . . + l.l.      ",
"      l.l., , l.... . . . . . . . . . r @ . . . . . = l.l...* @ l.l.8.l.l.l.= . . . . . . . . . O u.. . . . . . . . @ l.l.      ",
"      l.l., l.l.@ . . . . . . . . . . > O . . . . . . O q l.l.l.u.h , , U l.. . . . . . . . . . . l.. . . . . . . @ d l.l.      ",
"      V.l.l.l.@ . . . . . . . . . . . > + . . . . . . . . l.l.Z , , , , , u.X . . . . . . . . . . l.+ . . . X O < l.l.l.l.      ",
"      l.l.l.@ . . . . . . . . . . . . - @ . . . . . . . . l.l., , , , , , u.O . . . . . . . . . . [ l.l.l.l.B.l.l.[ > l.l.      ",
"      l.l.@ . . . . . . . . . . . . . > O . . . . . . . o l.;., , , , , , u.@ . . . . . . . . + ! 8.Z q < u.l.l.Z $ $ l.l.      ",
"      l.l.O . . . . . . . . . . . . O < . . . . . . . . O l.h , , , , , , u.> O . . . . . O t l.< $ $ $ $ % ..l.: $ $ Z l.      ",
"      l.l.% . . . . . . . . . . . . ! + . . . . . . . . . t Z , , , , , , c l.l...> @ O r l.[ * $ $ $ $ $ $ % [ > $ $ : l.      ",
"      l.l.= . . . . . . . . . . . = q . . . . . . . . . . O l., , , , , , , , c u.l.l.l.< ; $ $ $ $ $ $ $ $ $ : < $ $ $ l.      ",
"      l.l.t . . . . . . . . . . + l.+ . . . . . . . . . . . r ;., , , , , , , , h l.l.l.$ $ $ $ $ $ $ $ $ $ $ : t $ $ $ l.      ",
"      l.l.l.. . . . . . . . . % ..t . . . . . . . . . . . . o l., , , , , , , , , l.l.l.Z > : $ $ $ $ $ $ $ $ > t $ $ : l.      ",
"      l.l.l.o . . . . . + > l.8.l.! @ . . . . . . . . . . . . = l., , , , , , , , l.! - - q l.l.[ < $ $ $ $ $ < > $ $ > l.      ",
"      l.l.l.l.l.l.l.l.l.l.8., , h l.l.! @ . . . . . . . . + = ..l.l.;., , , , , ;.! . . . . . + = l.: $ $ $ $ < : $ $ ! l.      ",
"      l.l.;., , , , , , , , , , , ;.l.l.l.! @ . . . O = ..l.8.Z h Z l.l.c , , 8...X . . . . . . . l.< $ $ $ $ Z ; $ $ l.l.      ",
"      B.l.c , , , , , , , , , , , ;.c , , , ;.d = [ l.l.l.l., , , , h u.l.8.u.l.q . . . . . . . . d [ $ $ $ $ ! Z ; : l.l.      ",
"      V.V.h , , , , , , , , , , , 8.c , , , , , Z Z Z h Z l., , , , , , , , c l.l.. . . . . . . . > l.$ ; > ! l.l.l.l.l.l.      ",
"      V.V., , , , , , , , , , , , u.c , , , , , , , , , Z ;., , , , , , , , , U l.O . . . . . . . * l.l.l.l.l.l.l.l.l.l.l.      ",
"      l.l.&., , , , , , , , , , , l.c , , , , , , , , , u.[ , , , , , , , , , , l.* . . . . . . . * l.> * $ $ $ $ $ < l.l.      ",
"      l.l.l.h , , , , , , , , c l.l., , , , , , , , , , l.[ , , , , , , , , , , u.q . . . . . . . ..t $ $ $ $ $ $ $ % l.l.      ",
"      l.l.l.u., , , , , , Z l.l.8., , , , , , , , , , c l.[ , , , , , , , , , , ;.l.. . . . . . = l.: $ $ $ $ $ $ $ $ [ l.      ",
"      l.l.l.l.l.8.;.Z c l.l.l.u., , , , , , , , h c U u.l.u.c , , , , , , , , , Z l.* + + + + @ l.l.l.l.t : $ * : Z l.l.l.      ",
"      V.l.l.l.l.l.l.l.l.l.l.l.l.l.u.[ ;.8.l.l.l.l.l.l.l.l.l.l.l.8.! ;.8.8.u.l.l.l.l.l.l.l.l.l.l.l.l.l.l.l.l.l.l.l.l.l.l.V.      ",
"                                                                                                                                ",
"                                                                                                                                ",
"                                                                                                                                "
};
