/* XPM */
static char *result[] = {
/* columns rows colors chars-per-pixel */
"80 80 206 2 ",
"   c #292827",
".  c #2C2826",
"X  c #2C2C2B",
"o  c #312B2B",
"O  c #3D2B2B",
"+  c #2C2F30",
"@  c #332637",
"#  c #352A3D",
"$  c #3C2A3D",
"%  c #2C3132",
"&  c #2C393E",
"*  c #333638",
"=  c #492F2F",
"-  c #552626",
";  c #5E2626",
":  c #442B3A",
">  c #562A34",
",  c #5B293C",
"<  c #762323",
"1  c #6B2731",
"2  c #7E2537",
"3  c #77283B",
"4  c #7C2A38",
"5  c #7F2A3E",
"6  c #623B3D",
"7  c #392C40",
"8  c #36384A",
"9  c #373E52",
"0  c #52334B",
"q  c #583549",
"w  c #7E2A43",
"e  c #7B2C4E",
"r  c #67344E",
"t  c #78384A",
"y  c #7B2E52",
"u  c #783752",
"i  c #773558",
"p  c #6F3E61",
"a  c #763167",
"s  c #753269",
"d  c #723774",
"f  c #2F4B4E",
"g  c #2E585B",
"h  c #3B5255",
"j  c #30575A",
"k  c #324D65",
"l  c #314E68",
"z  c #394E75",
"x  c #316469",
"c  c #32777D",
"v  c #58404B",
"b  c #78465D",
"n  c #515F6A",
"m  c #6D4969",
"M  c #6C5466",
"N  c #6D556C",
"B  c #78566F",
"V  c #6D4C72",
"C  c #5C6C7D",
"Z  c #8D1F1F",
"A  c #971E1E",
"S  c #981C1A",
"D  c #AB1C1C",
"F  c #B11A1A",
"G  c #BF1919",
"H  c #B01B20",
"J  c #8C2327",
"K  c #9E212A",
"L  c #812636",
"P  c #812638",
"I  c #822A3C",
"U  c #C71716",
"Y  c #83364C",
"T  c #8E3D4D",
"R  c #923B4F",
"E  c #8B3C51",
"W  c #9D465C",
"Q  c #A3495B",
"!  c #99566D",
"~  c #A45665",
"^  c #A45C6A",
"/  c #AA6A7A",
"(  c #6B3782",
")  c #6D3A8C",
"_  c #683FA3",
"`  c #397880",
"'  c #346793",
"]  c #3F669C",
"[  c #387196",
"{  c #465D89",
"}  c #6A4887",
"|  c #674F8E",
" . c #5E6D84",
".. c #5D7686",
"X. c #57778F",
"o. c #5F669C",
"O. c #6C44A6",
"+. c #6541AE",
"@. c #6442B5",
"#. c #4E71B5",
"$. c #5F46C5",
"%. c #5F47C9",
"&. c #5D48CF",
"*. c #5B4AD6",
"=. c #5A4BDC",
"-. c #467DCA",
";. c #487AC8",
":. c #517FC3",
">. c #594CE1",
",. c #957D89",
"<. c #BE7F87",
"1. c #3C8A94",
"2. c #35959E",
"3. c #3598A3",
"4. c #3B99A7",
"5. c #37ADB8",
"6. c #38B2BE",
"7. c #528B9B",
"8. c #4E94AA",
"9. c #4688BD",
"0. c #7E8CB6",
"q. c #41B0BD",
"w. c #3A81C3",
"e. c #3C93D2",
"r. c #3DA9C9",
"t. c #39B3C1",
"y. c #3DB1CE",
"u. c #3BBBCF",
"i. c #3FA4DE",
"p. c #3CB4D6",
"a. c #3ABFD6",
"s. c #3ABADD",
"d. c #3F9AEE",
"f. c #3E9FF6",
"g. c #3CADED",
"h. c #3BB3E6",
"j. c #3AB8E0",
"k. c #3FA0F7",
"l. c #3CACF1",
"z. c #36A3FD",
"x. c #3DA4FD",
"c. c #3CA8FD",
"v. c #4682CC",
"b. c #4987CB",
"n. c #5080C5",
"m. c #5786CB",
"M. c #4392CA",
"N. c #4A94C8",
"B. c #4682D0",
"V. c #468AD5",
"C. c #588ED4",
"Z. c #4B99D3",
"A. c #7C98CF",
"S. c #41B3C1",
"D. c #49ACD5",
"F. c #4595E6",
"G. c #4A96E6",
"H. c #4197E9",
"J. c #4098ED",
"K. c #749EE2",
"L. c #4EB2E7",
"P. c #49A7FC",
"I. c #53ABF8",
"U. c #72B6EF",
"Y. c #6BB3F3",
"T. c #72B4F4",
"R. c #3AC1CE",
"E. c #37C6D3",
"W. c #39C3D0",
"Q. c #51C6D1",
"!. c #72C7D7",
"~. c #BE828B",
"^. c #9B87A5",
"/. c #968DB6",
"(. c #BB99A0",
"). c #C68C94",
"_. c #D69FA4",
"`. c #F895A5",
"'. c #CDAAAF",
"]. c #D8A8AE",
"[. c #E3B3B8",
"{. c #9E9BC7",
"}. c #9D9CC8",
"|. c #86AED4",
" X c #B4B2D1",
".X c #83BBEE",
"XX c #97BEEB",
"oX c #B8B8EB",
"OX c #9DC1EE",
"+X c #9DC7F2",
"@X c #9EC8F3",
"#X c #B4C6E7",
"$X c #B6C5FF",
"%X c #EBC5C8",
"&X c #EDC6C9",
"*X c #F7C7CB",
"=X c #E2CED9",
"-X c #E6D6DC",
";X c #F4D6D8",
":X c #FCDCDC",
">X c #FFE1DF",
",X c #CCC7E5",
"<X c #D3D0EF",
"1X c #C7CAFF",
"2X c #C9CBFF",
"3X c #E5D5E0",
/* pixels */
"=.=.=.=.=.=.=.=.=.=.=.=.=.=.=.=.=.=.=.=.=.=.=.=.=.=.=.=.=.=.=.=.=.=.=.=.=.=.=.=.=.=.=.=.=.=.=.=.=.=.=.=.=.=.=.=.=.=.=.=.=.=.=.=.=.=.=.=.=.=.=.=.=.=.*.=.=.=.=.=.",
"=.=.=.=.=.=.=.=.=.=.=.=.=.=.=.=.=.=.=.=.=.=.=.=.=.=.=.=.=.=.=.=.=.=.=.=.=.=.*.=.=.=.=.=.=.=.=.=.=.=.=.=.=.=.=.=.=.=.=.=.=.=.=.=.=.=.=.=.=.=.=.=.=.=.=.=.=.=.=.=.",
"=.=.=.=.=.=.=.=.=.=.=.=.=.=.=.=.=.=.=.=.=.=.=.=.=.=.=.=.=.=.=.=.=.=.=.=.=.=.=.=.=.=.=.=.=.=.=.=.=.=.=.=.=.=.=.=.=.=.=.=.=.=.=.=.=.=.=.=.=.=.=.=.=.=.=.=.=.=.=.=.",
"=.=.=.=.=.=.=.=.=.=.=.=.=.=.=.=.*.=.=.=.=.=.=.=.=.=.=.=.=.=.=.=.=.=.=.=.=.=.=.=.=.=.=.=.=.=.=.=.=.=.=.=.=.=.=.=.=.=.=.=.=.=.=.=.=.=.=.=.=.=.=.=.=.=.=.=.=.=.=.=.",
"=.=.=.=.=.=.=.=.=.=.=.=.=.=.=.=.=.=.=.=.=.=.=.=.=.=.=.=.=.=.=.=.=.=.=.=.=.=.=.=.=.=.=.=.=.=.=.=.=.=.=.=.=.=.=.=.=.=.=.=.=.*.=.=.=.=.=.=.=.=.=.=.=.=.=.=.=.=.=.=.",
"=.=.=.=.=.=.=.=.=.=.=.=.*.=.=.=.=.=.=.=.=.=.=.=.=.=.=.=.=.=.=.=.=.=.=.=.=.=.=.=.=.=.=.=.=.=.=.=.=.=.=.=.=.=.=.=.=.=.=.=.=.=.=.=.=.=.=.=.=.=.=.=.=.=.=.=.=.=.=.=.",
"=.=.=.=.=.=.=.=.=.=.=.=.=.=.=.=.=.=.=.=.=.=.=.=.=.=.=.=.=.=.=.=.=.=.=.=.=.=.=.=.=.=.=.=.=.*.=.=.=.=.*.=.=.=.=.=.=.=.=.=.=.=.=.=.=.=.=.=.=.=.=.=.=.=.=.=.=.=.=.=.",
"=.=.=.=.=.=.=.=.=.=.=.=.=.=.=.=.=.=.=.=.=.=.=.=.=.=.=.=.=.=.=.*.=.=.=.=.=.=.=.=.=.=.=.=.=.=.=.=.=.=.=.=.=.=.=.=.=.=.=.=.=.=.=.=.=.=.=.=.=.=.=.=.=.=.=.=.=.=.=.=.",
"=.=.=.=.=.=.=.=.=.=.=.*.=.=.=.=.=.=.=.=.=.=.=.=.=.=.=.=.=.=.=.=.=.=.=.*.=.=.=.=.=.=.=.=.=.=.=.=.=.=.=.=.=.=.=.=.=.=.=.=.=.=.=.=.=.=.=.=.=.=.=.=.=.=.=.=.=.=.=.=.",
"=.=.=.=.=.=.=.=.=.=.=.=.=.=.=.=.=.=.=.=.=.=.=.=.=.=.=.=.=.=.=.=.=.=.=.=.=.=.=.=.=.=.=.=.=.=.=.=.=.=.=.=.=.=.=.=.=.=.=.=.=.=.=.=.=.=.=.=.=.=.=.=.=.=.=.=.=.=.=.=.",
"=.=.=.=.=.=.=.=.=.=.=.=.=.=.=.=.=.=.=.=.=.=.=.=.=.=.=.=.=.=.=.=.=.=.=.=.=.=.=.=.=.=.=.=.=.=.=.=.=.=.=.=.=.=.=.=.=.=.=.=.=.=.=.=.=.=.=.=.=.=.=.=.=.=.=.=.=.=.=.=.",
"=.=.=.=.=.=.=.=.=.=.=.=.=.=.=.=.=.=.=.=.=.=.=.=.=.=.=.=.=.=.=.=.=.=.=.=.=.=.=.=.=.=.=.=.=.=.=.=.=.=.=.=.=.=.=.=.=.=.=.=.=.=.=.=.=.=.=.=.=.=.*.=.=.*.=.=.=.=.=.=.",
"=.=.=.=.=.=.=.=.=.=.=.=.=.=.=.=.=.=.=.=.=.=.=.=.=.=.=.=.=.=.=.=.=.=.=.=.=.=.=.=.=.=.=.=.=.=.=.=.=.=.=.=.=.=.=.=.=.=.=.=.=.=.=.=.=.=.=.=.=.=.=.=.=.=.=.=.=.=.=.=.",
"=.=.=.=.=.=.=.=.=.=.=.=.=.=.=.=.=.=.=.=.=.=.=.=.=.=.=.=.=.=.=.=.=.=.=.>.=.=.>.=.=.=.=.=.=.=.>.=.=.=.=.=.=.>.=.>.=.>.=.=.=.=.=.=.=.=.=.=.=.=.=.=.=.=.=.=.=.=.=.=.",
"=.=.=.=.=.=.=.=.*.=.=.=.=.=.=.=.=.=.=.=.&.%.%.%.%.%.%.%.%.%.%.%.%.%.%.%.%.%.%.%.%.%.%.%.%.%.%.%.%.%.$.%.%.%.%.%.$.%.$.%.*.=.=.=.=.=.=.=.=.=.=.=.=.=.=.=.=.=.=.=.",
"=.=.=.=.=.=.=.=.=.=.=.=.=.=.=.=.=.=.=.&.i e e e e e e e e e e e Y e e e e e e e e e e e e e e e e e e Y e e e e e e Y a %.=.=.=.=.=.=.=.=.=.=.=.=.=.=.=.=.=.=.=.",
"=.=.=.=.=.=.=.*.=.=.=.=.=.=.>.>.>.=.=.%.e P I P 5 5 I I L L 4 L P P P P L P P L I 2 L L L 2 2 2 P P P P L 4 I 4 I I L e %.>.=.>.=.=.=.=.=.=.=.=.=.=.=.=.=.=.=.=.",
"=.=.=.=.=.=.=.=.=.=.=.=.=.$.) ) ) ) ) }  .v > 1 K K 1 > v ...................................... . ...q > 1 K K 1 > v ..} ) ) ) ) ) %.=.=.=.=.=.=.=.=.=.=.=.=.=.",
"=.=.=.=.=.=.=.=.=.=.=.=.=._ w 2 P 2 P t q.g   - G G -   g R.E.E.E.W.E.W.E.E.E.E.E.E.E.E.W.W.E.E.W.W.E.g X - G G -   g q.t L P P I 5 _ >.=.=.=.=.=.=.=.=.=.=.=.=.",
"=.=.=.=.=.=.=.=.=.=.=.=.>._ w w e t t r 8.h O ; D D = & x R.R.R.W.W.W.W.R.W.W.W.R.R.W.W.W.W.W.W.W.R.a.x & = D D ; O h 4.r t t e 2 w @.>.=.=.=.=.=.=.=.=.=.=.=.=.",
"=.=.=.=.=.=.=.=.=.=.=.=.>.@.5 I 7.t.1.% & J D Z = O 1.6.6.W.W.W.W.W.R.W.R.E.R.W.E.R.E.R.W.W.W.W.W.W.W.t.6.1.O = Z F J & * 7.6.7.5 5 _ >.=.=.=.=.=.=.=.=.=.=.=.=.",
"=.=.=.=.=.=.=.=.=.=.=.=.>._ I I 8.E.3.% X A U A X X 2.E.E.W.W.W.W.W.W.W.W.W.W.W.R.E.E.R.R.R.W.W.W.W.W.W.E.3.X X A G A X X 3.E.8.I I @.>.=.=.=.=.=.=.=.=.=.=.=.=.",
"=.=.=.=.=.=.=.=.=.=.=._ ) | ....` ` n < < < < 6 c c 5.E.E.R.W.R.W.R.W.W.W.W.W.W.W.R.R.E.W.E.W.W.W.W.W.W.E.5.c c 6 < < < < n c ` ....| ( O.=.=.=.=.=.=.=.=.=.=.=.",
"=.=.=.=.=.=.=.=.=.=.*.a L M W.R.g X - G G -   g R.E.R.W.W.W.W.W.W.W.W.W.R.E.R.W.W.E.R.R.W.W.W.W.W.W.W.W.W.E.E.R.g . - G G - . g R.R.M L a *.=.=.=.=.=.=.=.=.=.=.",
"=.=.=.=.=.=.=.=.=.=.*.a L M S.R.g . - D D > & x R.R.W.W.W.R.W.W.W.W.E.R.W.W.W.R.W.W.W.W.W.W.W.R.R.W.W.R.W.W.R.R.x & , D D - X g R.S.M L s =.=.=.=.=.=.=.=.=.=.=.",
"=.=.=.=.=.=.=.=.=.=.*.s L M W.R.g X o O @ { #.w.R.W.W.W.W.W.W.W.W.W.R.W.W.W.R.E.W.W.W.W.R.W.W.W.E.W.W.E.R.R.E.R.4.#.{ O O X X g R.R.M L s *.=.=.=.=.=.=.=.=.=.=.",
"=.=.=.=.=.=.=.=.=.=.*.s L M R.R.g X X X + ] -.M.W.W.W.W.W.W.R.W.W.W.W.W.E.R.W.W.R.W.W.W.W.W.W.W.R.W.W.R.E.R.R.R.V.-.] + X X   g u.R.M L s *.=.=.=.=.=.=.=.=.=.=.",
"=.=.=.=.=.=.=.=.=.=.*.s L M R.u.g . X X + 1.Z.y.W.R.W.W.W.W.W.W.R.W.W.W.R.W.W.W.W.W.W.W.W.W.W.W.W.W.W.W.W.W.E.R.r.r.[ & X X   j R.R.M L s =.=.=.=.=.=.=.=.=.=.=.",
"=.=.=.=.=.=.=.=.=.=.=.a L N R.R.c g f X % 3.E.R.W.W.W.W.W.W.W.W.E.W.W.W.W.W.R.E.R.W.W.W.W.W.W.R.W.W.W.W.W.R.W.W.W.E.2.+ X f j c R.R.M L s *.=.=.=.=.=.=.=.=.=.=.",
"=.=.=.=.=.=.=.=.=.=.*.a L M R.W.R.R.2.+ X 3.E.R.W.W.W.R.W.W.W.u.u.u.W.W.W.W.W.R.W.W.W.W.W.R.R.u.u.W.E.W.W.W.W.W.W.E.3.+ + 3.R.u.R.R.M L s *.=.=.=.=.=.=.=.=.=.=.",
"=.=.=.=.=.=.=.=.=.*.*.a L N u.R.R.E.3.& % 3.E.E.R.W.W.W.R.W.W.M.v.M.W.R.R.E.W.W.W.W.W.W.W.R.M.v.e.W.R.R.W.W.E.W.W.W.2.+ % 3.E.W.R.R.M L s *.=.=.=.=.=.=.=.=.=.=.",
"=.=.=.=.=.=.=.=.@.d s #.m.N.R.W.j.l.i.{ ] r.R.R.W.W.W.W.W.W.R.e.;.M.W.W.W.R.W.W.W.W.W.W.W.R.M.;.M.R.W.W.W.W.W.W.W.W.r.#.{ 5.E.W.R.u.M L s =.=.=.=.=.=.=.=.=.=.=.",
"=.=.=.=.=.=.=.>.+.2 5 n.c.l.R.E.l.x.J.-.-.i.h.j.W.W.W.W.a.h.h.V.;.M.u.W.W.W.W.W.W.R.E.W.W.W.M.;.M.u.R.E.R.W.W.W.j.h.D.-.-.i.g.j.W.W.#.o.o.) ) $.=.=.=.=.=.=.=.=.",
"=.=.=.=.=.=.=.>.+.2 Y n.x.l.s.s.l.x.J.-.-.J.x.l.W.R.W.W.s.x.x.V.;.M.W.W.W.W.W.W.W.W.R.W.s.s.Z.b.M.a.E.R.W.W.W.W.l.x.J.-.-.d.x.l.W.W.l.c.n.I 5 +.>.=.=.=.=.=.=.=.",
"=.=.=.=.=.=.=.=.+.5 5 n.c.x.x.x.x.x.J.B.-.J.x.l.W.W.W.R.s.f.k.Z.m.C.W.E.W.W.W.R.R.W.E.s.P.I.I.G.N.u.u.R.W.W.W.W.l.x.J.-.-.H.x.l.a.a.l.c.n.I 5 +.=.=.=.=.=.=.=.=.",
"=.=.=.=.=.=.=.>.+.5 w n.x.x.x.x.x.x.x.J.B.J.x.l.W.W.W.R.y.-.v. X&X#XP.l.s.W.W.W.E.R.R.s.P.,X-X-X Xb.v.D.W.W.W.W.l.x.J.-.-.f.x.x.l.c.x.x.n.I I +.>.=.=.=.=.=.=.=.",
"=.=.=.=.=.=.=.>.+.5 5 n.x.x.x.x.x.x.x.P.B.J.x.l.W.W.W.7.m b p W _.,XP.x.s.R.W.W.E.R.R.E.Q.-X:X:X,X9.w.y.W.W.E.R.l.x.J.-.H.k.x.x.x.x.x.x.:.w w _ >.=.=.=.=.=.=.=.",
"=.=.=.=.=.=.=.=.+.5 I n.c.x.x.x.x.x.f.f.-.J.x.l.W.W.7.b T ~.<.T W ^.F.F.g.h.s.W.R.E.E.R.Q.-X:X:X=X X XZ.e.r.R.E.l.x.J.B.f.x.x.x.x.x.x.x.:.w w @.=.=.=.=.=.=.=.=.",
"=.=.=.=.=.=.=.>.+.5 w n.x.x.x.x.x.x.x.f.B.d.x.l.s.p.M t ,.:X:X~.W p -.;.d.x.g.W.R.R.R.R.Q.-X:X:X:X:X:XA.-.M.s.s.l.x.J.B.f.x.x.x.x.x.x.c.:.w 5 _ >.=.=.=.=.=.=.=.",
"=.=.=.=.=.=.=.=.+.5 5 n.x.x.x.x.x.x.x.f.B.d.x.x.z.l.| X.!.:X:X:X~.B I.C.J.x.l.W.E.R.E.E.Q.-X:X;X%X%X%X0.#.;.F.F.P.x.J.B.f.x.x.x.x.x.x.x.n.5 w @.>.=.=.=.=.=.=.=.",
"=.=.=.=.=.=.=.=.+.5 5 n.x.x.x.x.x.x.x.f.-.J.x.x.x.x.J.f.U.;X:X:X;X=X-X=XT.x.g.W.W.W.W.W.Q.-X>X).T T T u u u i i v.x.J.B.f.x.x.x.x.x.x.c.n.Y 5 _ =.=.=.=.=.=.=.=.",
"=.=.=.=.=.=.=.=.+.5 w n.x.x.x.x.x.x.x.f.B.d.x.x.x.x.P.x.C.^ ^ [.>X:X:X:XU.z.l.R.W.W.R.W.Q.-X>X%X).I I o.n.n.n.n.J.x.J.B.f.x.x.x.x.x.x.x.:.2 5 +.=.=.=.=.=.=.=.=.",
"=.=.=.=.=.=.=.=.+.5 w n.x.x.x.x.x.x.x.f.B.J.x.x.x.x.x.c.n.3 5 ].:X:X:X:X#XOXU.h.e.u.W.a.L.-X:X>X].I 5 b.c.c.x.x.x.x.J.B.f.x.x.x.x.x.x.x.:.5 5 +.=.=.=.=.=.=.=.=.",
"=.=.=.=.=.=.=.>.+.5 5 :.c.x.x.x.x.x.x.f.B.J.x.x.x.x.x.x.n.5 I ].>X:X:X:X>X>X,XP.e.y.E.s.P.3X:X>X].I w n.c.c.x.x.x.x.J.B.f.x.x.P.x.x.x.c.:.w 5 +.>.=.=.=.=.=.=.=.",
"=.=.=.=.=.=.=.>._ e w :.x.x.x.x.x.x.x.f.B.J.x.x.x.x.x.c.:.2 I ].:X:X:X:X:X:X,XI.I.L.E.j.Y.3X:X>X].I w n.c.x.x.x.x.x.f.-.f.x.x.x.x.x.x.x.n.5 5 +.>.=.=.=.=.=.=.=.",
"=.=.=.=.=.=.=.=._ w w :.x.x.x.x.x.x.x.f.B.H.x.k.x.x.x.x.:.Y I ].>X:X:X:X:X:X;X-X3XY.c.Y.3X:X:X>X].I 5 n.x.x.x.x.f.f.d.-.f.x.x.x.x.x.x.x.n.5 5 +.=.=.=.=.=.=.=.=.",
"=.=.=.=.=.=.=.>._ e Y n.x.x.x.x.x.x.x.x.d.' k ' k.x.x.x.n.w I ].>X:X:X:X:X:X:X:X;XT.z.T.:X:X:X:X].Y 5 n.x.x.k.z.' k ' d.f.x.x.x.x.x.x.c.n.5 5 +.>.=.=.=.=.=.=.=.",
"=.=.=.=.=.=.=.=._ 5 2 n.x.x.x.x.x.x.k.z.f.k . k z.x.x.x.n.5 P ].>X:X:X:X:X:X:X:X:XY.Y.#X:X:X:X>X].I 5 n.x.x.x.f.k . k x.x.x.x.x.x.x.x.c.n.5 w +.=.=.=.=.=.=.=.=.",
"=.=.=.=.=.=.=.>.+.4 5 n.c.x.x.x.x.x.x.x.f.l . l k.x.x.x.:.5 I ].:X:X:X:X:X:X:X;X:XXXXX3X:X:X:X>X].I I n.x.x.x.z.l . l z.k.x.x.x.x.x.x.x.n.Y 5 +.>.=.=.=.=.=.=.=.",
"=.=.=.=.=.=.=.=.+.5 w n.c.c.x.x.x.x.x.x.f.l . k k.x.x.c.:.2 Y ].:X:X:X:X:X:X:X:X:X:XXX.X:X:X:X:X].I 5 n.x.x.x.k.l . l k.x.x.x.x.x.x.x.x.n.2 5 +.=.=.=.=.=.=.=.=.",
"=.=.=.=.=.=.=.>.+.5 5 n.x.x.x.x.x.x.x.x.k.l o k f.f.x.x.n.Y P ].:X:X:X:X:X:X:X:X:X:X3X3X>X:X:X>X].I 5 n.x.x.z.k.k . k f.x.x.x.x.x.x.x.x.n.5 5 +.>.=.=.=.=.=.=.=.",
"=.=.=.=.=.=.=.>.+.5 Y #.c.x.x.x.x.x.x.x.k.b S 4 l l e.c.:.I I ].:X:X:X:X:X:X:X:X:X:X:X:X:X:X:X:X].I 5 n.x.e.l k 4 S b P.x.x.x.x.x.x.x.c.:.5 5 +.=.=.=.=.=.=.=.=.",
"=.=.=.=.=.=.=.>._ 5 Y n.x.x.x.x.x.x.x.x.P.R U A   + w.c.n.5 Y ].>X:X:X:X:X:X:X:X:X:X:X:X:X:X:X:X].I I n.c.w.X . A U R P.x.x.x.x.x.x.x.x.:.5 5 +.>.=.=.=.=.=.=.=.",
"=.=.=.=.=.=.=.>.+.5 2 n.c.x.x.x.x.x.x.f.m.R H J = : w.c.m.Q Q [.:X:X:X:X:X:X:X:X:X:X:X:X:X:X:X:X[.~ Q m.z.v.: = J H R b.J.x.x.x.x.x.x.x.n.w 5 +.>.=.=.=.=.=.=.=.",
"=.=.=.=.=.=.=.>.+.w 3 n.x.x.x.x.x.x.x.F.i 5 P P 2 w n.z.K.`.`.*X:X:X:X:X:X:X:X:X:X:X:X:X:X:X:X:X*X`.`.K.c.n.4 5 I I I i H.x.x.x.x.x.x.c.n.5 I +.=.=.=.=.=.=.=.=.",
"=.=.=.=.=.=.=.=._ w w n.x.x.P.x.x.x.x.F.u P 5 w 5 w :.z.K.`.`.*X:X;X:X:X:X:X:X:X;X:X:X:X:X;X:X;X*X`.`.K.z.n.w I Y I 2 u F.x.x.P.x.x.x.x.n.5 5 +.>.=.=.=.=.=.=.=.",
"=.=.=.=.=.=.=.=.@.w 5 n.x.x.x.x.x.x.x.F.u P d +._ _ } V b Q Q ~ ~ ^ / ,X<X<X XB N  X<X<X,X/ ~ ^ ~ Q Q B V } +.+._ d L u F.x.x.x.x.x.x.x.n.w 5 +.=.=.=.=.=.=.=.=.",
"=.=.=.=.=.=.=.>._ 5 w :.x.x.x.x.x.x.x.H.u L ) >.>.*.a L I L P P 2 2 E oX1X2X{.$ @ {.2X2XoXE 2 2 L L L L 2 a =.=.>.) 2 u F.x.x.x.x.x.x.x.n.5 5 +.=.=.=.=.=.=.=.=.",
"=.=.=.=.=.=.=.>._ w w :.x.x.x.x.x.x.x.F.u L ) >.>.=.) a s s a a y P Y /.}.}.,.{ z 0.}.}./.Y 2 y a a s s a ( =.=.>.) L i H.x.x.x.x.x.x.x.n.I w +.=.=.=.=.=.=.=.=.",
"=.=.=.=.=.=.=.=.@.w w :.c.x.x.x.x.x.x.F.u P ) =.=.>.*.=.=.=.=.=.) 2 w 7 7 # z z.f.z $ 7 0 2 2 ) =.=.=.*.*.=.=.=.>.) L y F.x.x.x.x.x.x.x.n.5 5 +.=.=.=.=.=.=.=.=.",
"=.=.=.=.=.=.=.>.+.w Y #.x.k.x.x.x.x.x.F.u P ) =.=.=.=.=.=.=.=.=.) 5 3 7 7 # z f.z.z $ 7 7 w 2 ) =.=.=.=.=.=.=.=.=.) P u F.x.x.x.x.x.f.x.;.e e _ >.=.=.=.=.=.=.=.",
"=.=.=.=.=.=.=.=.&.+.+.} V o.k.x.x.x.x.F.u P ) >.=.=.=.=.=.&.d s r : 0 /.}.}.A.h.p.|.{.{./.0 : r a d %.=.=.=.=.=.>.) L u F.x.x.x.x.x.o.V } _ _ %.=.=.=.=.=.=.=.=.",
"=.=.=.=.=.=.=.=.=.=.=.a L V k.x.x.x.x.F.u P ) =.=.=.=.=.>.%.w 2 > @ 0 oX2X2X@XE.R.@X1X1XoX0 @ > P y %.>.=.=.=.=.=.) P u F.x.x.x.f.f.m L s =.>.=.=.=.=.=.=.=.=.=.",
"=.=.=.=.=.=.=.=.=.=.=.s L V k.x.x.x.x.F.u L ) >.=.=.=.$.+.+.! ^ N z { oX1X1X+XW.E.+X1X1XoX{ z V ^ ! _ _ $.=.=.=.>.) P u F.x.x.x.f.P.V L s =.=.=.=.=.=.=.=.=.=.=.",
"=.=.=.=.=.=.=.=.=.=.*.a L V x.x.x.P.x.F.u L ) >.=.=.=.) 5 E %X:XXXf.I.$X1X1X+XW.W.+X1X1X$XP.k.XX:X%XT 2 ) =.=.=.>.) P u F.x.x.x.x.k.V L a =.=.=.=.=.=.=.=.=.=.=.",
"=.=.=.=.=.=.=.=.=.=.=.s L V f.x.x.x.x.F.u I ) =.=.=.>.) 2 T &X:XXXx.P.$X1X1X+Xa.W.+X1X1X$XP.x.XX:X&XT 2 ) =.=.=.=.) L u F.x.x.x.x.k.V L s =.=.=.=.=.=.=.=.=.=.=.",
"=.=.=.=.=.=.=.=.=.=.*.a L V x.x.x.x.x.F.u 2 ) >.=.=.=.) 2 T &X:XXXx.P.$X1X1XOXE.Q.OX1X1X$XI.z.XX:X&XT 2 ) >.=.=.>.) L i F.x.x.x.x.x.V L s *.=.=.=.=.=.=.=.=.=.=.",
"=.=.=.=.=.=.=.=.=.=.=._ ) } o.o.F.x.z.F.u 2 ) =.=.=.=.) 2 W &X>XOXx.P.$X1X1X@XQ.E.@X1X1X$XP.z.+X>X&XW 2 ) =.=.=.>.} L u F.x.x.F.o.o.| ) _ *.=.=.=.=.=.*.=.=.=.=.",
"=.=.=.=.=.=.=.=.=.=.=.=.>.+.P P :.x.c.F.u I ) =.=.=.=.) 2 Y (.'.0.w.M.XX+X+XU.4.4.U.@X@XOXe.w.0.'.(.Y L ) =.=.=.=.) 2 u D.l.l.9.Y P _ >.=.=.=.=.=.=.=.=.=.=.=.=.",
"=.=.=.=.=.=.=.=.=.=.=.=.=.@.y u #.H.G.b.u I ) =.=.=.=.) L 3 : $ $ # f S.R.R.8.7 $ 2.Q.E.6.9 7 7 7 : 3 2 ) >.=.=.>.) 2 t 8.q.S.7.e a _ =.=.=.=.=.=.=.=.=.=.=.=.=.",
"=.=.=.=.=.=.=.=.=.=.=.=.=.=.%.$.d u u u I I ) =.=.=.=.) I 3 $ # # # 9 6.R.E.2.7 $ 3.E.E.6.9 @ @ # $ 3 I ) >.=.=.=.) I 2 u u e d $.$.*.=.=.=.=.=.=.=.=.=.=.=.=.=.",
"=.=.=.=.=.=.=.=.=.=.=.=.=.=.=.*.s L I L P L ) =.=.=.=.) L 3 $ # # @ 9 6.E.E.4.$ 7 3.E.E.t.8 @ 7 # $ 3 L ) =.=.=.=.) L I I 4 L a =.=.=.=.=.=.=.=.=.=.=.=.=.=.=.=.",
"=.=.=.=.=.=.=.=.=.=.=.=.=.=.=.=._ ) ) ) ) ) _ =.=.=.=.@.) ( q , q , r C  ...n q r n .. .C q , , , q d ) _ >.>.=.=._ ) ) ) ) ) _ =.=.=.=.=.=.=.=.=.=.=.=.=.=.=.=.",
"=.=.=.=.=.=.=.=.=.=.=.=.=.=.=.=.=.>.>.=.>.>.>.=.=.=.=.=.>.%.e L P L 2 L L L P P L L I L L P P P I e %.>.=.=.>.=.=.=.>.>.=.=.=.>.=.=.=.=.=.=.=.=.=.=.=.=.=.=.=.=.",
"=.=.=.=.=.=.=.=.=.=.=.=.=.=.=.=.=.=.=.=.>.=.=.=.=.=.=.=.>.%.i e e e e e e e e e e e e e e e e e e a %.>.=.=.=.=.=.=.>.>.=.=.=.=.=.=.=.=.=.=.=.=.=.=.=.=.=.=.=.=.",
"=.=.=.=.=.=.=.=.=.=.=.=.=.=.=.=.=.=.=.=.=.=.=.=.=.=.=.=.=.=.%.%.%.%.%.%.$.%.%.%.%.%.%.%.%.%.%.%.$.%.=.=.=.=.=.=.=.=.=.>.=.=.=.=.=.=.=.=.=.=.=.=.=.=.=.=.=.=.=.=.",
"=.=.=.=.=.=.=.=.=.=.=.=.=.=.=.=.=.=.=.=.=.=.=.=.=.=.=.=.=.=.=.=.=.=.>.=.=.=.=.=.=.=.=.=.=.=.=.=.=.=.=.=.=.=.=.=.=.=.=.=.=.=.=.=.=.=.=.=.=.=.=.=.=.=.=.=.=.=.=.=.",
"=.=.=.=.=.=.=.=.=.=.=.=.=.=.=.=.=.=.=.=.=.=.=.=.=.=.=.=.=.=.=.=.=.=.=.=.=.=.=.=.=.=.=.=.=.=.=.=.=.=.=.=.=.=.=.=.=.=.=.=.=.=.=.=.=.=.=.=.=.=.=.=.=.=.=.=.=.=.=.=.",
"=.=.=.*.=.=.=.=.=.=.=.=.=.=.=.=.=.=.=.=.=.=.=.=.=.=.=.=.=.=.=.=.=.=.=.=.=.=.=.=.=.=.=.=.=.=.=.=.=.=.=.=.=.=.=.=.=.=.=.=.=.=.=.=.=.=.=.=.=.=.=.=.=.=.=.=.=.=.=.=.",
"=.=.=.=.=.=.=.=.=.=.=.=.*.=.=.=.=.=.=.=.=.=.=.=.=.=.=.=.=.=.=.=.=.=.=.=.=.=.=.=.=.=.=.=.=.=.=.=.=.=.=.=.=.=.=.=.=.=.=.=.=.=.=.=.=.=.=.=.=.=.=.=.=.*.=.=.=.=.=.=."
};
