/* XPM */
static char *result[] = {
/* columns rows colors chars-per-pixel */
"80 80 140 2 ",
"   c #5A4BDC",
".  c #644EDD",
"X  c #684FDD",
"o  c #6251DD",
"O  c #6E51DE",
"+  c #7553DF",
"@  c #7C55DF",
"#  c #7553E0",
"$  c #7E56E0",
"%  c #7A59E0",
"&  c #BF6DBE",
"*  c #C16EBE",
"=  c #CE73B6",
"-  c #C570BC",
";  c #CC75BB",
":  c #C47ABF",
">  c #CD7ABC",
",  c #D376B5",
"<  c #D679B6",
"1  c #D279B9",
"2  c #D87AB8",
"3  c #8357DE",
"4  c #8659DE",
"5  c #8A5ADC",
"6  c #955ED5",
"7  c #985FD3",
"8  c #905FDC",
"9  c #9D61CF",
"0  c #8E65DF",
"q  c #9660D7",
"w  c #9C61D2",
"e  c #9E6BD7",
"r  c #9663DB",
"t  c #9865DC",
"y  c #976DDD",
"u  c #9A6BDD",
"i  c #9774DB",
"p  c #AE66C7",
"a  c #A664CC",
"s  c #AB66C9",
"d  c #A668CE",
"f  c #AC69CC",
"g  c #B46CC1",
"h  c #BA6CC2",
"j  c #AE7DCD",
"k  c #BD74C4",
"l  c #BD7AC2",
"z  c #B674CA",
"x  c #BE73C9",
"c  c #B27FCE",
"v  c #BB7ECD",
"b  c #A468D0",
"n  c #AC6BD2",
"m  c #A86ED9",
"M  c #A173D3",
"N  c #AA73D3",
"B  c #AF7CD5",
"V  c #A178DC",
"C  c #B072D1",
"Z  c #B874D1",
"A  c #B47DD3",
"S  c #BD78D2",
"D  c #BD7DDB",
"F  c #8156E0",
"G  c #835BE1",
"H  c #895DE1",
"J  c #8661E2",
"K  c #8964E3",
"L  c #866CE4",
"P  c #8D6BE4",
"I  c #9465E2",
"U  c #956BE3",
"Y  c #9C6CE3",
"T  c #8F70E5",
"R  c #8C79E6",
"E  c #9172E5",
"W  c #9D73E5",
"Q  c #967BE7",
"!  c #9A7CE6",
"~  c #967DE8",
"^  c #987EE8",
"/  c #A16EE3",
"(  c #A473E4",
")  c #AA75E4",
"_  c #A17EE7",
"`  c #AB7CE5",
"'  c #B57EE5",
"]  c #C676C5",
"[  c #C37CC5",
"{  c #CA7CC2",
"}  c #D37EC2",
"|  c #BC81CD",
" . c #A981D7",
".. c #A785DC",
"X. c #AD85DC",
"o. c #AF89DF",
"O. c #B383D5",
"+. c #BB83D2",
"@. c #B285DC",
"#. c #B987DA",
"$. c #BA88DB",
"%. c #9C84E9",
"&. c #9F8AEA",
"*. c #A485E3",
"=. c #AA86E0",
"-. c #A488E5",
";. c #AB89E3",
":. c #A383E8",
">. c #AA87E9",
",. c #A18BEA",
"<. c #AC8DE9",
"1. c #B482E6",
"2. c #BB83E6",
"3. c #B18CE6",
"4. c #BA8DE5",
"5. c #B48DE9",
"6. c #BC8EE8",
"7. c #B390EA",
"8. c #BA90E9",
"9. c #C782CC",
"0. c #CB82CD",
"q. c #D180C6",
"w. c #D184CF",
"e. c #CE85D0",
"r. c #CB89D4",
"t. c #CB86DA",
"y. c #CC8ADA",
"u. c #D28AD6",
"i. c #D18CDC",
"p. c #C187E6",
"a. c #C28AE6",
"s. c #C98DE6",
"d. c #C08EE8",
"f. c #C88EE8",
"g. c #C590E5",
"h. c #CD91E5",
"j. c #C492E9",
"k. c #CC92E8",
"l. c #D191E4",
"z. c #D094E8",
/* pixels */
"                                                                                                                                                                ",
"                                                                                                                                                                ",
"                                                                                                                                                                ",
"                                                                                                                                                                ",
"                                                                                                                                                                ",
"                                                                                                                                                                ",
"                                                                                                                                                                ",
"                                                                                                                                                                ",
"                                                                                                                                                                ",
"                                                                                                                                                                ",
"                                                                                                                                                                ",
"                                                                                                                                                                ",
"                                                                                                                                                                ",
"                . X . o   . .                     . . . . . .                 . . . . . .           .   . . . . o           .   . o . . . . . .                 ",
"              + G G G G G G $             .     . $ G G G G 3 .         .   X G G G G G @ .       . G H 5 5 3 5 3 +   o   # G G G G G G G G G G +               ",
"            + $ K %.%.%.%.Q F F 3 O o $ @ @ $ $ $ F Q %.%.%.G @ .   F $ @ @ F G ^ %.&.Q F $ $ $ $ G p.f.0.= = ; 7 $ $ $ $ $ U %.%.%.&.%.%.%.%.K $ #             ",
"            # 9 z &.&.&.&.&.^ 1.I # $ 3 h & N ~ Q Q &.&.&.&.Q %.L $ G h & & z ! &.&.,.%.Q Q K @ I 2.z.6.<.X.O., & M Q Q G $ b | &.&.&.&.&.&.&.%.K +             ",
"            # n r.&.&.&.&.&.<.k.Z 7 5 p , [ o.&.,.&.&.&.&.&.&.O.e $ 5 = = : O.&.&.&.&.&.,.,.Q T E ` 6.,.&.&.-.O.j ..&.,.) H s { &.&.&.&.&.&.&.&.E +             ",
"            # ( 8.&.&.&.&.&.-.y.] a q } } =.&.&.&.&.&.&.&.&.&.{ h 5 5 { l  .&.&.&.&.&.&.&.&.&.&.Q G Q %.&.&.&.&.&.&.&.,.k.I d 9.&.&.&.&.&.&.&.&.E +             ",
"            # T %.&.&.&.&.&.-.{ q F Y k.k.<.&.&.,.&.&.&.&.&.&.[ , & 5 f.<.&.&.&.&.&.&.&.&.&.,.,.^ H F ~ &.&.&.&.&.&.&.,.k.I ) j.&.&.&.&.&.&.&.&.E +             ",
"            # G P &.&.&.&.,.-.s.I ( d.-.,.&.&.&.&.&.&.&.&.&.&.,.v * 5 s.<.&.,.&.&.&.&.&.&.&.&.5.k.p.H Q ,.&.&.&.&.&.&.<.k.I ) j.&.&.&.&.&.&.&.&.E +             ",
"              + G K J K K K K I G ) j.,.&.&.&.&.&.&.&.&.&.&.,.&.4.D H s.<.,.&.,.,.&.&.&.,.&.8.k.p.I F Q &.&.,.&.&.&.&.-.q.q ) j.&.&.&.&.&.&.&.&.E @ #           ",
"            X + $ G ( ) ) ) ) ) H I ( E E 1.8.5.,.&.&.&.&.&.E P W Y G ( E E T E E %.,.&.,.5.` ) Y F P %.&.&.&.&.&.&.=.c p 5 I ` 8.8.8.8.7.&.&.Q K F $ O         ",
"            @ 5 w w t.f.j.j.j.z.) I K $ F ) 2.>.Q Q ~ Q Q Q G I I r 7 7 7 5 F 3 @ T Q Q ! 2.K G K P &.,.&.&.&.&.&.&.1.{ 5 K H I 2.2.2.2.1.Q Q t 7 7 7 3 o       ",
"            # s < 2 1 o.&.&.,.j.k.z.2.5 G 3 5 H H H 5 5 5 5 @ ' k.y., < ; d G G G H 5 5 G G G P &.&.&.&.&.&.&.&.&.,.<.p.K 2.) $ G G H H H H 5 * , 1 : 4 .       ",
"            # s 1 l.l.<.&.&.,.,.-.8.i.- 3 h 0.f.f.s.{ = = - 5 G E @.; X.-.-.%.%.G ' e.k %.%.K F P &.&.&.&.&.&.&.8.k.2.K ! -.E G H 2.s.f.s.s.= , v *.*.G .       ",
"            + y o.<.<.,.&.&.&.&.&.,.<.B 4 #.a.<.<.<.1.X.X.X.! J ( 6.o.&.&.&.&.%.G 2.a...&.&.%.P F P %.,.,.&.-.j.) I U ^ &.T G J %.<.<.<.<.<.X.X.=.&.%.G .       ",
"            + J Q &.&.&.&.&.&.&.&.&.&.%.4 2.8.&.&.&.&.&.&.&.&.K m r.&.&.&.&.&.%.G *.<.&.&.&.&.^ K $ P E T E E ( H $ G E T G J Q &.&.&.&.&.&.%.,.&.&.%.G .       ",
"            O @ G ^ %.&.&.&.&.&.&.%.! Q G ` <.&.&.&.&.&.&.&.,.K d 9.&.&.&.&.&.%.G %.&.&.&.&.&.,.%.K 6 3 F F F $ J K K K K G P ,.&.&.&.&.&.&.&.&.&.&.%.G .       ",
"              O G G %.%.%.%.%.%.%.T 3 3 5 ! &.&.&.&.&.&.&.&.%.K ) 6.&.&.&.&.&.&.G ! &.&.&.&.&.&.&.X.; w F G H 5 ! &.&.&.&.K P &.&.&.&.&.&.&.&.&.&.&.&.G .       ",
"              O F F G G G G G 3 G G 7 ; = o.&.&.&.&.&.&.&.%.J 1.6.,.&.&.&.&.&.%.J Q ,.&.&.&.&.&.X.; , w F I a.> X.&.&.&.&.K G P &.&.&.&.&.&.&.&.&.&.%.G .       ",
"            O @ I 2.2.2.2.D ] & ] 7 7 < u.;.&.&.&.&.&.&.%.J 3 _ <.&.&.&.&.&.%.K @ Q ,.&.&.&.&.<.y., 9 3 K %.<.X.-.&.&.&.&.~ P J &.&.&.&.&.&.&.&.&.&.&.G .       ",
"            @ 7 N 8.8.8.6.4.+.| 2 p 5 f s.j.<.&.,.,.&.%.K @ T %.&.&.,.5.#.| N H a _ -.&.&.&.5.j.s.a 3 K ^ &.&.&.&.&.&.&.&.,.T G Q %.&.&.&.&.,.&.&.%.P G .       ",
"            # n 9.&.&.&.&.&.&.&.| n K U ' 2.:.~ Q Q Q K 3 L &.&.&.&.,.8.1 = p 5 = X.&.&.&.&.j.a.) 3 K %.&.&.&.&.&.&.&.&.&.&.W 6 G %.&.&.,.&.&.&.%.E F #         ",
"            + ) j.&.&.&.&.&.&.&.&.&.<.d.I F F F 3 $ G $ K %.&.%.%.&.%.%.[ s F 5 = o.&.&.&.&.j.) 3 G %.&.&.&.&.&.&.&.&.&.&.&.| & G %.%.%.%.%.%.&.P F $           ",
"            + ) j.&.&.&.&.&.&.&.&.&.&.<.f.I F F G G $ G 4 G G 4 G G G G 3 3 $ H a.<.&.&.&.,.j.) $ G %.&.&.&.&.&.&.&.&.&.&.&.| & G G G G G G G G G $ $ .         ",
"            + ) g.&.&.&.&.&.&.&.&.&.&.,.k.I $ I 2.2.2.S & & & & w $ G Q ~ ~ T H f.<.&.%.K K I H 6 k -.&.&.&.&.&.&.&.&.&.&.&.4.D G ' 2.S & h ! Q ^ E 3 + .       ",
"            + W 5.&.&.&.,.&.&.&.&.&.&.-.k.1.I I k.8.8.$.| | | ; z T T E A o.~ 3 ( U T P $ $ $ G q = -.&.&.&.&.&.&.&.&.&.&.&.:.Y G 3.8.$.| | -.&.&.*.a 3 .       ",
"            + E &.&.&.&.&.&.&.&.&.,.&.,.2.2.Y I k.,.&.&.&.&.&.j B &.%.G & | %.K K K K K U U H $ q , @.-.&.&.&.&.&.&.&.&.&.o.y @ P %.&.&.&.&.&.&.&.X.= 5 .       ",
"            + P &.,.&.&.&.&.&.&.&.%.%.%.G 5 3 Y j.,.&.&.&.&.&.&.&.&.%.G & | &.&.&.&.,.<.k.k.U $ 7 = 1 @.&.&.&.&.&.&.&.&.,.[ a K &.&.&.&.&.&.&.&.&.o.; 5 .       ",
"            + $ Y j.,.,.,.&.&.&.&.E G G F h A %.,.,.&.&.&.&.&.&.&.&.%.G & | &.&.&.&.&.,.<.,.&.P 3 8 s.h.8.&.&.,.&.&.,.,.j.u 3 K &.&.&.&.&.&.&.&.&.X.= 3 .       ",
"            L ~ E I K K K K K K K G I 2.2.@.*.,.&.&.&.&.&.&.&.&.&.&.&.G D 6.&.&.&.&.&.&.&.&.&.T F F I I Q &.,.,.&.5.1.K I Q ! ! ,.&.&.&.&.&.&.&.5.2.q G .       ",
"            R ,.%.T E P P T P $ G $ U z.8.,.&.&.&.&.&.,.&.&.,.&.&.%.T $ 2.8.&.&.&.&.&.&.&.&.&.T 5 p s 5 J T E P T W / G P %.,.&.&.&.&.&.&.%.&.<.j.2.$ #         ",
"            R ,.&.,.,.,.,.,.&.P G $ I k.,.&.&.&.&.&.&.,.&.&.&.&.%.T G I 1.<.&.&.&.&.&.&.&.&.&.T 7 , } m U I I I G F $ G &.&.&.&.&.&.&.&.&.,.<.k.s.) $           ",
"            R &.&.&.&.%.&.&.&.&.K F I f.,.,.,.,.-.-.-.,.,.%.%.&.T $ 8 f.<.&.&.&.&.&.&.&.&.&.&.T 7 < s.h.k.k.k.k.Y 3 H G %.&.&.&.&.&.&.&.,.,.k.f.( 3 @           ",
"            R ,.&.&.&.,.&.&.&.&.K F K ,.,.,.5.k.k.> = e.1.G G G $ 7 ; l.<.&.&.&.&.&.&.&.&.&.K G 7 1 -.<.-.,.,.,.] e.' F G ~ &.&.&.&.&.&.,.-.k.Y G +             ",
"            R &.&.&.&.&.,.&.&.&.K $ G K K K I I I 7 7 t I $ $ G $ t i.z.<.&.&.&.&.,.,.,.%.K G Y 2.X.&.&.&.&.&.&.X.;.-.Q G Q ,.&.,.,.,.@.{ [ u H +               ",
"            R ,.&.&.&.&.&.&.&.,.K 6 b T T T E P T T T T T P 3 G G K ) ) 1.8.8.5.Q P T T P G $ W 7.&.&.&.&.&.&.&.&.&.&.&.G Q &.&.%.,.@.{ 2 [ 3 F + O             ",
"            i =.&.&.&.&.&.&.&.&.K b | ,.&.,.,.,.&.,.&.&.,.%.K K G G J G ` 2.2.' G G K K K K $ P %.&.&.&.&.&.&.&.&.&.&.%.G T &.&.,.,.0.; x 1.Y I H # .           ",
"            g +.&.&.&.&.&.&.&.&.K E ,.&.&.&.&.&.&.&.&.&.&.&.,.&.E J %.G G G G G G Q &.&.&.&.P G J %.&.&.&.&.&.,.&.&.,.%.G 3 T %.%.-.6.( F K f.k.` H $ .         ",
"            =.8.&.&.&.&.&.&.&.&.J P ,.&.&.&.&.&.&.,.&.&.&.&.&.,.P G J %.%.%.%.%.%.,.,.&.&.&.6.( @ K %.&.&.&.&.&.&.&.&.%.G 3 G G K a.Y G K %.,.,.6.' # .         ",
"            ' z.8.&.&.&.&.&.%.P G E &.&.&.&.&.&.&.&.&.&.&.&.&.,.B p G %.,.,.&.&.&.,.&.&.&.&.<.A p 4 %.&.&.&.&.&.&.&.&.%.G T %.T 3 U G K ! ,.,.&.6.2.$           ",
"            I ) ` 5.,.&.&.&.%.G K %.&.&.&.&.&.&.&.&.&.&.&.&.&. .> * G %.&.&.&.&.&.,.&.&.&.&.&.| & G %.,.&.&.&.&.&.&.&.%.G P %.%.E T T Q &.&.&.&.<.` $           ",
"            O $ I k.5.<.:.Q Q G Q ,.&.&.&.&.&.&.&.&.,.,.&.,.<.0.> p G %.&.&.&.&.&.&.&.&.&.&.&.| & G %.&.&.&.&.&.&.,.%.Q K G K Q ! Q &.&.&.&.&.&.,.! $ .         ",
"              o I s.s.s.( F G G Q %.%.&.&.&.&.&.&.&.-.,.,.<.k.k.( G J %.&.&.&.&.&.&.&.&.&.&.&.+.] 4 %.,.,.-.&.&.&.%.Q J %.P G G G @ Q &.%.,.&.&.8.2.G           ",
"              O G H H H G J %.G G G P &.&.&.&.&.&.&.[ 0.k.k.h.Y F K %.,.,.&.&.&.&.&.&.&.&.&.&.6.2.@ 3 1.w.[ &.&.K G K %.&.&.%.%.%.G G 4 K &.,.,.8.2.$           ",
"            O 9 * * & V ~ %.&.Q %.K G K K K K K K K q t I I I Q Q %.&.&.&.&.&.,.&.&.&.&.&.&.6.` K G Q Y q 8 K K G 9 z &.&.&.&.&.&.Q Q K 3 P 6.9.C I F           ",
"            # p 1 | | -.,.&.&.&.&.T @ 3 a p e T P T T K F F P %.&.&.&.&.&.&.&.&.&.&.&.,.5.6.' I G T &.E T P $ F w - { &.&.&.&.&.&.,.,.%.K G ( n 7 # O           ",
"            # n 9.&.&.&.&.&.&.&.&.Q J 5 = ; O.&.,.,.,.E K G Q %.&.&.&.,.&.&.,.<.X.X.;.6.k.2.I G E &.&.&.,.%.K G & < | &.&.&.&.&.&.&.&.,.Q 3 I q 5 +             ",
"            # ) j.&.&.&.&.&.&.&.&.&.Q 5 > o.&.&.&.&.,.,.Q G F Q %.%.&.,.&.&.<.i.2 , e.f.p.8 G E &.&.&.&.&.&.%.G k | &.&.&.&.&.&.&.&.&.&.Q K s.q.s #             ",
"            + ) j.&.&.&.&.,.&.&.&.,.Q 4 s.<.&.&.&.&.,.&.&.%.G G G K ,.j.<.&.X.1 < u.) 5 8 - ..&.&.&.&.&.&.&.%.G #.5.&.&.&.&.&.&.&.&.&.,.Q H s.5.U $ @           ",
"            + ) j.&.&.&.&.&.&.&.&.,.%.G >.,.&.&.&.&.&.&.&.&.~ J $ G K I K K K 7 q t K K 2., @.&.,.&.&.&.,.^ K G 2.8.&.&.&.&.&.&.&.&.&.&.Q H s.<.%.E $           ",
"            # ) j.&.&.&.&.&.&.&.&.Q P G %.&.&.&.&.&.&.&.&.&.&.K U ) ) s s s d P T G F U h.+.-.&.&.&.,.&.^ P F $ Y 1.7.&.&.&.&.&.&.&.,.^ K K s.<.&.Q $           ",
"            # ) j.<.,.&.&.&.&.&.,.T 3 w %.&.&.&.&.&.&.&.&.&.~ J ( j.g.{ : { | &.&.U G I k.5.<.<.-.! Q Q K G K K G Y 2.<.<.,.&.&.&.&.%.P 3 Y 8.<.&.! @ .         ",
"            O ( s.h.;.-.,.&.&.&.%.P q 1 -.,.&.&.&.&.&.&.&.%.G G T &.&.&.&.&.&.&.&.&.T U f.f.f.s.1.G G G G P &.&.P 3 I s.z.3.-.-.-.%.K F Y k.,.,.&.Q $           ",
"              + Y l.1 1 O.&.&.&.K G U k.-.,.&.&.&.&.%.&.^ G F ' 5.&.&.&.&.&.&.&.&.,.T 3 G 0 3 H I %.%.%.%.&.&.&.%.E G K f.} 1 1 > 5 F ( d.,.&.,.E G $           ",
"              X 3 U w - < z K K G F G Y d.9.@.&.&.&.&.Q G G Q >.<.&.&.&.&.&.&.&.&.E G J Q Q %.Q %.&.&.&.&.&.-.[ e G $ F I q 6 6 6 F ) f.j.&.,.&.T $ $ $ .       ",
"            . # 5 a 3 w p w 3 F F F F 3 ( d z +.8.8.! J H ) ,.&.&.&.&.,.&.,.&.&.E G F G T T %.&.&.&.&.&.&.<.4.d 5 @ H ) a p 7 $ F P 3.8.5.&.E T T y a 3 .       ",
"            + 5 d [ 0 K K K K K G F G K K K b x 2.2.( H I 2.^ Q :.<.<.^ ! Q Q Q P I U r 6 6 W %.&.&.&.X.;.3.' G I I ( u.{ : N J G Q Q ~ Q Q F G Q o.{ 5 .       ",
"            # p [ &.&.&.&.&.&.&.K F K &.&.&.T G G G 2.) G H H G ( s.p.H G G G J %.6.k.y.1 2 q P %.&.&.[ 0.1.F H 2.k.y.> -.&.&.Q G G G G G G G Q &.<.f.H .       ",
"            # ) j.&.&.&.&.&.&.&.K F K &.&.&.&.%.%.%.,.%.>.f.f.I G H G G Q &.%.%.&.,.<.&.;.s.I 3 P &.,.f.) G H p.<.,.-.-.,.&.&.%.G ~ %.L J %.G G E <.f.H .       ",
"            + ) j.&.&.&.&.&.&.&.K K %.&.&.&.&.&.&.,.&.,.,.<.<.1.Y J Q Q %.&.&.&.&.&.&.&.,.k.a.Y G K K I H I 2.} o.&.&.&.&.&.,.Q G %.&.%.%.&.~ G b { { 3 .       ",
"            + ) k.8.&.&.&.&.&.&.K T ,.&.&.&.&.&.&.&.&.&.&.&.&.8.) K &.&.&.&.&.&.&.&.&.&.,.5.u.m G T T T L ^ 8.O...&.&.&.&.&.&.Q G 5.,.<.4.| | 0 s = s 3 .       ",
"            + Y p.z.5.<.<.<.<.! J E &.&.,.&.&.&.&.&.&.&.&.&.,.j.) J &.&.&.&.&.&.&.&.&.&.&.&.9.d J ~ &.&.&.&.&.&.&.&.&.&.&.%.Q T H y.$.1.D * * 6 9 p F # .       ",
"            + @ I s.f.f.f.f.p.H $ P &.%.%.%.%.%.%.%.%.%.%.%.%.5.( J %.&.%.%.%.&.%.%.%.%.%.%.4.( $ % ~ %.%.%.%.%.%.&.%.%.%.K $ $ 5 * = a F @ @ $ $ 3 $           ",
"              + G H H G H H H F o O G J G G G G G o o o o o o o o   o $ G G G G G G G G G o o .     o o o o o o % G G G G G O O F 5 5 G @                       ",
"                . . . . . .   o .   . . . . . .                       . . . . . o . . . .                       . . . . . .     X . . . .                       ",
"                                                                                                                                                                ",
"                                                                                                                                                                ",
"                                                                                                                                                                "
};
